<svg width="36" height="36" viewBox="0 0 36 36" fill="none" xmlns="http://www.w3.org/2000/svg">
<path d="M28.6749 15.2799L23.3549 13.4599V10.8199L33.0749 14.6999H33.0949V16.7199L33.0749 16.6999L23.3549 20.5999V17.9399L28.6749 16.1399C29.4549 15.8799 30.5149 15.9399 31.3349 15.9399V15.4799C30.5149 15.4799 29.4549 15.5399 28.6749 15.2799Z" fill="white"/>
<path d="M14.7576 23L18.9376 8.69995H21.2976L17.0976 23H14.7576Z" fill="#FC560F"/>
<path d="M7.17999 16.1399L12.48 17.9399V20.5999L2.75999 16.6999L2.73999 16.7199V14.6999H2.75999L12.48 10.8199V13.4599L7.17999 15.2799C6.39999 15.5399 5.31999 15.4799 4.49999 15.4799V15.9399C5.31999 15.9399 6.39999 15.8799 7.17999 16.1399Z" fill="white"/>
</svg>
