<svg width="26" height="26" viewBox="0 0 26 26" fill="none" xmlns="http://www.w3.org/2000/svg">
<mask id="mask0_794_6912" style="mask-type:alpha" maskUnits="userSpaceOnUse" x="0" y="0" width="26" height="26">
<rect x="0.199219" y="0.199707" width="25.6" height="25.6" fill="#D9D9D9"/>
</mask>
<g mask="url(#mask0_794_6912)">
<path d="M13.0001 17.2663L7.6668 11.933L9.16013 10.3863L11.9335 13.1596V4.46631H14.0668V13.1596L16.8401 10.3863L18.3335 11.933L13.0001 17.2663ZM6.60013 21.533C6.01346 21.533 5.51124 21.3241 5.09346 20.9063C4.67569 20.4885 4.4668 19.9863 4.4668 19.3996V16.1996H6.60013V19.3996H19.4001V16.1996H21.5335V19.3996C21.5335 19.9863 21.3246 20.4885 20.9068 20.9063C20.489 21.3241 19.9868 21.533 19.4001 21.533H6.60013Z" fill="#FC560F"/>
</g>
</svg>
