<svg width="24" height="24" viewBox="0 0 24 24" fill="none" xmlns="http://www.w3.org/2000/svg">
<path fill-rule="evenodd" clip-rule="evenodd" d="M23.5564 23.5555H18.8078V15.4676C18.8078 13.2501 17.9652 12.0109 16.2101 12.0109C14.3007 12.0109 13.3031 13.3004 13.3031 15.4676V23.5555H8.72679V8.1481H13.3031V10.2235C13.3031 10.2235 14.6791 7.67738 17.9487 7.67738C21.2167 7.67738 23.5564 9.67305 23.5564 13.8005V23.5555ZM3.26725 6.13063C1.70845 6.13063 0.445312 4.85758 0.445312 3.28751C0.445312 1.71744 1.70845 0.444397 3.26725 0.444397C4.82604 0.444397 6.08843 1.71744 6.08843 3.28751C6.08843 4.85758 4.82604 6.13063 3.26725 6.13063ZM0.904224 23.5555H5.67616V8.1481H0.904224V23.5555Z" fill="#0066C8"/>
</svg>
