<svg width="36" height="36" viewBox="0 0 36 36" fill="none" xmlns="http://www.w3.org/2000/svg">
<path d="M4.2785 16.3889L7.90489 14.1395L10.9132 8.46878L9.34039 6.38013L4.2785 16.3889Z" fill="white"/>
<path d="M9.89746 5.46276L18.406 17.0887L19.0485 12.2116L12.627 0L9.89746 5.46276Z" fill="white"/>
<path d="M9.14709 22.8036L14.7464 35.7873L15.8714 34.0942L11.2251 25.0237L9.14709 22.8036Z" fill="white"/>
<path d="M27.1946 22.8036L21.5947 35.7873L20.4697 34.0942L25.1166 25.0237L27.1946 22.8036Z" fill="white"/>
<path d="M18.3213 9.08308L19.7114 11.4926L23.3772 5.97372L29.0022 14.3002L31.7215 16.0674L23.6573 0L18.3213 9.08308Z" fill="white"/>
<path d="M18.1653 35.1968L18.5714 36H20.9372L19.8134 34.2328H18.8144L18.1653 32.9474L17.5598 34.2328H16.5172L15.3934 36H17.7867L18.1653 35.1968Z" fill="white"/>
<path d="M13.9503 21.5291C15.0448 21.8918 15.9352 21.9426 15.9352 21.9426C15.8187 19.548 14.3695 18.6157 12.6294 18.0504C10.8894 17.485 9.93457 16.0675 9.93457 16.0675C9.83605 18.8386 11.3438 20.3076 12.8725 21.0838" fill="#BAFF00"/>
<path d="M21.7375 20.4384C20.6203 20.7222 20.3122 22.1619 20.3122 22.1619C20.5982 19.7816 22.1102 19.4075 23.886 18.9677C25.6619 18.5278 26.7152 16.729 26.7152 16.729C26.6167 19.5001 24.7423 19.7995 22.8679 20.1055" fill="#BAFF00"/>
</svg>
