<svg width="28" height="22" viewBox="0 0 28 22" fill="none" xmlns="http://www.w3.org/2000/svg">
<path d="M1.90909 21.5H6.36364V10.6819L0 5.90914V19.591C0 20.6473 0.855909 21.5 1.90909 21.5Z" fill="#4285F4"/>
<path d="M21.6357 21.5H26.0903C27.1467 21.5 27.9994 20.6441 27.9994 19.591V5.90914L21.6357 10.6819" fill="#34A853"/>
<path d="M21.6357 2.40901V10.6819L27.9994 5.90914V3.36356C27.9994 1.00265 25.3044 -0.343259 23.4176 1.07265" fill="#FBBC04"/>
<path d="M6.36364 10.6819L6.36426 2.40914L14.0006 8.13641L21.637 2.40914V10.6819L14.0006 16.4091" fill="#EA4335"/>
<path d="M0 3.36356V5.90914L6.36364 10.6819L6.36426 2.40914L4.58182 1.07265C2.69182 -0.343259 0 1.00265 0 3.36356Z" fill="#C5221F"/>
</svg>
