<svg width="430" height="955" viewBox="0 0 430 955" fill="none" xmlns="http://www.w3.org/2000/svg">
<g clip-path="url(#clip0_1054_15081)">
<rect width="430" height="955" fill="#080300"/>
<path d="M18.414 2.70883C18.414 4.07665 17.3052 5.18548 15.9373 5.18548C14.5695 5.18548 13.4607 4.07665 13.4607 2.70883C13.4607 1.34102 14.5695 0.232186 15.9373 0.232186C17.3052 0.232186 18.414 1.34102 18.414 2.70883Z" fill="#161616" stroke="#161616" stroke-width="0.464371"/>
<path d="M18.414 42.1805C18.414 43.5483 17.3052 44.6572 15.9373 44.6572C14.5695 44.6572 13.4607 43.5483 13.4607 42.1805C13.4607 40.8127 14.5695 39.7039 15.9373 39.7039C17.3052 39.7039 18.414 40.8127 18.414 42.1805Z" fill="#161616" stroke="#161616" stroke-width="0.464371"/>
<path d="M18.414 81.6522C18.414 83.02 17.3052 84.1288 15.9373 84.1288C14.5695 84.1288 13.4607 83.02 13.4607 81.6522C13.4607 80.2844 14.5695 79.1755 15.9373 79.1755C17.3052 79.1755 18.414 80.2844 18.414 81.6522Z" fill="#161616" stroke="#161616" stroke-width="0.464371"/>
<path d="M18.414 121.124C18.414 122.492 17.3052 123.601 15.9373 123.601C14.5695 123.601 13.4607 122.492 13.4607 121.124C13.4607 119.756 14.5695 118.647 15.9373 118.647C17.3052 118.647 18.414 119.756 18.414 121.124Z" fill="#161616" stroke="#161616" stroke-width="0.464371"/>
<path d="M18.414 160.596C18.414 161.963 17.3052 163.072 15.9373 163.072C14.5695 163.072 13.4607 161.963 13.4607 160.596C13.4607 159.228 14.5695 158.119 15.9373 158.119C17.3052 158.119 18.414 159.228 18.414 160.596Z" fill="#161616" stroke="#161616" stroke-width="0.464371"/>
<path d="M18.414 200.067C18.414 201.435 17.3052 202.544 15.9373 202.544C14.5695 202.544 13.4607 201.435 13.4607 200.067C13.4607 198.699 14.5695 197.591 15.9373 197.591C17.3052 197.591 18.414 198.699 18.414 200.067Z" fill="#161616" stroke="#161616" stroke-width="0.464371"/>
<path d="M18.414 239.538C18.414 240.906 17.3052 242.015 15.9373 242.015C14.5695 242.015 13.4607 240.906 13.4607 239.538C13.4607 238.17 14.5695 237.061 15.9373 237.061C17.3052 237.061 18.414 238.17 18.414 239.538Z" fill="#161616" stroke="#161616" stroke-width="0.464371"/>
<path d="M18.414 279.01C18.414 280.377 17.3052 281.486 15.9373 281.486C14.5695 281.486 13.4607 280.377 13.4607 279.01C13.4607 277.642 14.5695 276.533 15.9373 276.533C17.3052 276.533 18.414 277.642 18.414 279.01Z" fill="#161616" stroke="#161616" stroke-width="0.464371"/>
<path d="M18.414 318.481C18.414 319.849 17.3052 320.958 15.9373 320.958C14.5695 320.958 13.4607 319.849 13.4607 318.481C13.4607 317.113 14.5695 316.005 15.9373 316.005C17.3052 316.005 18.414 317.113 18.414 318.481Z" fill="#161616" stroke="#161616" stroke-width="0.464371"/>
<path d="M18.414 357.953C18.414 359.321 17.3052 360.43 15.9373 360.43C14.5695 360.43 13.4607 359.321 13.4607 357.953C13.4607 356.585 14.5695 355.476 15.9373 355.476C17.3052 355.476 18.414 356.585 18.414 357.953Z" fill="#161616" stroke="#161616" stroke-width="0.464371"/>
<path d="M18.414 397.425C18.414 398.792 17.3052 399.901 15.9373 399.901C14.5695 399.901 13.4607 398.792 13.4607 397.425C13.4607 396.057 14.5695 394.948 15.9373 394.948C17.3052 394.948 18.414 396.057 18.414 397.425Z" fill="#161616" stroke="#161616" stroke-width="0.464371"/>
<path d="M18.2177 436.772C18.7501 438.032 18.1604 439.485 16.9005 440.018C15.6406 440.55 14.1876 439.961 13.6551 438.701C13.1226 437.441 13.7123 435.988 14.9723 435.455C16.2322 434.923 17.6852 435.513 18.2177 436.772Z" fill="#161616" stroke="#161616" stroke-width="0.464371"/>
<path d="M18.414 478.05C18.414 479.417 17.3052 480.526 15.9373 480.526C14.5695 480.526 13.4607 479.417 13.4607 478.05C13.4607 476.682 14.5695 475.573 15.9373 475.573C17.3052 475.573 18.414 476.682 18.414 478.05Z" fill="#161616" stroke="#161616" stroke-width="0.464371"/>
<path d="M18.414 517.521C18.414 518.889 17.3052 519.998 15.9373 519.998C14.5695 519.998 13.4607 518.889 13.4607 517.521C13.4607 516.153 14.5695 515.045 15.9373 515.045C17.3052 515.045 18.414 516.153 18.414 517.521Z" fill="#161616" stroke="#161616" stroke-width="0.464371"/>
<path d="M18.414 556.992C18.414 558.36 17.3052 559.469 15.9373 559.469C14.5695 559.469 13.4607 558.36 13.4607 556.992C13.4607 555.624 14.5695 554.515 15.9373 554.515C17.3052 554.515 18.414 555.624 18.414 556.992Z" fill="#161616" stroke="#161616" stroke-width="0.464371"/>
<path d="M18.414 596.464C18.414 597.832 17.3052 598.94 15.9373 598.94C14.5695 598.94 13.4607 597.832 13.4607 596.464C13.4607 595.096 14.5695 593.987 15.9373 593.987C17.3052 593.987 18.414 595.096 18.414 596.464Z" fill="#161616" stroke="#161616" stroke-width="0.464371"/>
<path d="M18.414 635.935C18.414 637.303 17.3052 638.412 15.9373 638.412C14.5695 638.412 13.4607 637.303 13.4607 635.935C13.4607 634.568 14.5695 633.459 15.9373 633.459C17.3052 633.459 18.414 634.568 18.414 635.935Z" fill="#161616" stroke="#161616" stroke-width="0.464371"/>
<path d="M18.414 675.407C18.414 676.775 17.3052 677.884 15.9373 677.884C14.5695 677.884 13.4607 676.775 13.4607 675.407C13.4607 674.039 14.5695 672.93 15.9373 672.93C17.3052 672.93 18.414 674.039 18.414 675.407Z" fill="#161616" stroke="#161616" stroke-width="0.464371"/>
<path d="M18.414 714.879C18.414 716.247 17.3052 717.355 15.9373 717.355C14.5695 717.355 13.4607 716.247 13.4607 714.879C13.4607 713.511 14.5695 712.402 15.9373 712.402C17.3052 712.402 18.414 713.511 18.414 714.879Z" fill="#161616" stroke="#161616" stroke-width="0.464371"/>
<path d="M18.414 754.35C18.414 755.718 17.3052 756.827 15.9373 756.827C14.5695 756.827 13.4607 755.718 13.4607 754.35C13.4607 752.983 14.5695 751.874 15.9373 751.874C17.3052 751.874 18.414 752.983 18.414 754.35Z" fill="#161616" stroke="#161616" stroke-width="0.464371"/>
<path d="M18.414 793.822C18.414 795.19 17.3052 796.299 15.9373 796.299C14.5695 796.299 13.4607 795.19 13.4607 793.822C13.4607 792.454 14.5695 791.345 15.9373 791.345C17.3052 791.345 18.414 792.454 18.414 793.822Z" fill="#161616" stroke="#161616" stroke-width="0.464371"/>
<path d="M18.414 833.293C18.414 834.661 17.3052 835.769 15.9373 835.769C14.5695 835.769 13.4607 834.661 13.4607 833.293C13.4607 831.925 14.5695 830.816 15.9373 830.816C17.3052 830.816 18.414 831.925 18.414 833.293Z" fill="#161616" stroke="#161616" stroke-width="0.464371"/>
<path d="M18.414 872.764C18.414 874.132 17.3052 875.241 15.9373 875.241C14.5695 875.241 13.4607 874.132 13.4607 872.764C13.4607 871.397 14.5695 870.288 15.9373 870.288C17.3052 870.288 18.414 871.397 18.414 872.764Z" fill="#161616" stroke="#161616" stroke-width="0.464371"/>
<path d="M18.414 912.236C18.414 913.604 17.3052 914.713 15.9373 914.713C14.5695 914.713 13.4607 913.604 13.4607 912.236C13.4607 910.868 14.5695 909.76 15.9373 909.76C17.3052 909.76 18.414 910.868 18.414 912.236Z" fill="#161616" stroke="#161616" stroke-width="0.464371"/>
<path d="M18.414 951.708C18.414 953.076 17.3052 954.185 15.9373 954.185C14.5695 954.185 13.4607 953.076 13.4607 951.708C13.4607 950.34 14.5695 949.231 15.9373 949.231C17.3052 949.231 18.414 950.34 18.414 951.708Z" fill="#161616" stroke="#161616" stroke-width="0.464371"/>
<path d="M62.662 2.70883C62.662 4.07665 61.5532 5.18548 60.1854 5.18548C58.8176 5.18548 57.7087 4.07665 57.7087 2.70883C57.7087 1.34102 58.8176 0.232186 60.1854 0.232186C61.5532 0.232186 62.662 1.34102 62.662 2.70883Z" fill="#161616" stroke="#161616" stroke-width="0.464371"/>
<path d="M62.662 42.1805C62.662 43.5483 61.5532 44.6572 60.1854 44.6572C58.8176 44.6572 57.7087 43.5483 57.7087 42.1805C57.7087 40.8127 58.8176 39.7039 60.1854 39.7039C61.5532 39.7039 62.662 40.8127 62.662 42.1805Z" fill="#161616" stroke="#161616" stroke-width="0.464371"/>
<path d="M62.662 81.6522C62.662 83.02 61.5532 84.1288 60.1854 84.1288C58.8176 84.1288 57.7087 83.02 57.7087 81.6522C57.7087 80.2844 58.8176 79.1755 60.1854 79.1755C61.5532 79.1755 62.662 80.2844 62.662 81.6522Z" fill="#161616" stroke="#161616" stroke-width="0.464371"/>
<path d="M62.662 121.124C62.662 122.492 61.5532 123.601 60.1854 123.601C58.8176 123.601 57.7087 122.492 57.7087 121.124C57.7087 119.756 58.8176 118.647 60.1854 118.647C61.5532 118.647 62.662 119.756 62.662 121.124Z" fill="#161616" stroke="#161616" stroke-width="0.464371"/>
<path d="M62.662 160.596C62.662 161.963 61.5532 163.072 60.1854 163.072C58.8176 163.072 57.7087 161.963 57.7087 160.596C57.7087 159.228 58.8176 158.119 60.1854 158.119C61.5532 158.119 62.662 159.228 62.662 160.596Z" fill="#161616" stroke="#161616" stroke-width="0.464371"/>
<path d="M62.662 200.067C62.662 201.435 61.5532 202.544 60.1854 202.544C58.8176 202.544 57.7087 201.435 57.7087 200.067C57.7087 198.699 58.8176 197.591 60.1854 197.591C61.5532 197.591 62.662 198.699 62.662 200.067Z" fill="#161616" stroke="#161616" stroke-width="0.464371"/>
<path d="M62.662 239.538C62.662 240.906 61.5532 242.015 60.1854 242.015C58.8176 242.015 57.7087 240.906 57.7087 239.538C57.7087 238.17 58.8176 237.061 60.1854 237.061C61.5532 237.061 62.662 238.17 62.662 239.538Z" fill="#161616" stroke="#161616" stroke-width="0.464371"/>
<path d="M62.662 279.01C62.662 280.377 61.5532 281.486 60.1854 281.486C58.8176 281.486 57.7087 280.377 57.7087 279.01C57.7087 277.642 58.8176 276.533 60.1854 276.533C61.5532 276.533 62.662 277.642 62.662 279.01Z" fill="#161616" stroke="#161616" stroke-width="0.464371"/>
<path d="M62.662 318.481C62.662 319.849 61.5532 320.958 60.1854 320.958C58.8176 320.958 57.7087 319.849 57.7087 318.481C57.7087 317.113 58.8176 316.005 60.1854 316.005C61.5532 316.005 62.662 317.113 62.662 318.481Z" fill="#161616" stroke="#161616" stroke-width="0.464371"/>
<path d="M62.662 357.953C62.662 359.321 61.5532 360.43 60.1854 360.43C58.8176 360.43 57.7087 359.321 57.7087 357.953C57.7087 356.585 58.8176 355.476 60.1854 355.476C61.5532 355.476 62.662 356.585 62.662 357.953Z" fill="#161616" stroke="#161616" stroke-width="0.464371"/>
<path d="M62.662 397.425C62.662 398.792 61.5532 399.901 60.1854 399.901C58.8176 399.901 57.7087 398.792 57.7087 397.425C57.7087 396.057 58.8176 394.948 60.1854 394.948C61.5532 394.948 62.662 396.057 62.662 397.425Z" fill="#161616" stroke="#161616" stroke-width="0.464371"/>
<path d="M62.4677 436.772C63.0001 438.032 62.4104 439.485 61.1505 440.018C59.8906 440.55 58.4376 439.961 57.9051 438.701C57.3726 437.441 57.9623 435.988 59.2223 435.455C60.4822 434.923 61.9352 435.513 62.4677 436.772Z" fill="#161616" stroke="#161616" stroke-width="0.464371"/>
<path d="M62.662 478.05C62.662 479.417 61.5532 480.526 60.1854 480.526C58.8176 480.526 57.7087 479.417 57.7087 478.05C57.7087 476.682 58.8176 475.573 60.1854 475.573C61.5532 475.573 62.662 476.682 62.662 478.05Z" fill="#161616" stroke="#161616" stroke-width="0.464371"/>
<path d="M62.662 517.521C62.662 518.889 61.5532 519.998 60.1854 519.998C58.8176 519.998 57.7087 518.889 57.7087 517.521C57.7087 516.153 58.8176 515.045 60.1854 515.045C61.5532 515.045 62.662 516.153 62.662 517.521Z" fill="#161616" stroke="#161616" stroke-width="0.464371"/>
<path d="M62.662 556.992C62.662 558.36 61.5532 559.469 60.1854 559.469C58.8176 559.469 57.7087 558.36 57.7087 556.992C57.7087 555.624 58.8176 554.515 60.1854 554.515C61.5532 554.515 62.662 555.624 62.662 556.992Z" fill="#161616" stroke="#161616" stroke-width="0.464371"/>
<path d="M62.662 596.464C62.662 597.832 61.5532 598.94 60.1854 598.94C58.8176 598.94 57.7087 597.832 57.7087 596.464C57.7087 595.096 58.8176 593.987 60.1854 593.987C61.5532 593.987 62.662 595.096 62.662 596.464Z" fill="#161616" stroke="#161616" stroke-width="0.464371"/>
<path d="M62.662 635.935C62.662 637.303 61.5532 638.412 60.1854 638.412C58.8176 638.412 57.7087 637.303 57.7087 635.935C57.7087 634.568 58.8176 633.459 60.1854 633.459C61.5532 633.459 62.662 634.568 62.662 635.935Z" fill="#161616" stroke="#161616" stroke-width="0.464371"/>
<path d="M62.662 675.407C62.662 676.775 61.5532 677.884 60.1854 677.884C58.8176 677.884 57.7087 676.775 57.7087 675.407C57.7087 674.039 58.8176 672.93 60.1854 672.93C61.5532 672.93 62.662 674.039 62.662 675.407Z" fill="#161616" stroke="#161616" stroke-width="0.464371"/>
<path d="M62.662 714.879C62.662 716.247 61.5532 717.355 60.1854 717.355C58.8176 717.355 57.7087 716.247 57.7087 714.879C57.7087 713.511 58.8176 712.402 60.1854 712.402C61.5532 712.402 62.662 713.511 62.662 714.879Z" fill="#161616" stroke="#161616" stroke-width="0.464371"/>
<path d="M62.662 754.35C62.662 755.718 61.5532 756.827 60.1854 756.827C58.8176 756.827 57.7087 755.718 57.7087 754.35C57.7087 752.983 58.8176 751.874 60.1854 751.874C61.5532 751.874 62.662 752.983 62.662 754.35Z" fill="#161616" stroke="#161616" stroke-width="0.464371"/>
<path d="M62.662 793.822C62.662 795.19 61.5532 796.299 60.1854 796.299C58.8176 796.299 57.7087 795.19 57.7087 793.822C57.7087 792.454 58.8176 791.345 60.1854 791.345C61.5532 791.345 62.662 792.454 62.662 793.822Z" fill="#161616" stroke="#161616" stroke-width="0.464371"/>
<path d="M62.662 833.293C62.662 834.661 61.5532 835.769 60.1854 835.769C58.8176 835.769 57.7087 834.661 57.7087 833.293C57.7087 831.925 58.8176 830.816 60.1854 830.816C61.5532 830.816 62.662 831.925 62.662 833.293Z" fill="#161616" stroke="#161616" stroke-width="0.464371"/>
<path d="M62.662 872.764C62.662 874.132 61.5532 875.241 60.1854 875.241C58.8176 875.241 57.7087 874.132 57.7087 872.764C57.7087 871.397 58.8176 870.288 60.1854 870.288C61.5532 870.288 62.662 871.397 62.662 872.764Z" fill="#161616" stroke="#161616" stroke-width="0.464371"/>
<path d="M62.662 912.236C62.662 913.604 61.5532 914.713 60.1854 914.713C58.8176 914.713 57.7087 913.604 57.7087 912.236C57.7087 910.868 58.8176 909.76 60.1854 909.76C61.5532 909.76 62.662 910.868 62.662 912.236Z" fill="#161616" stroke="#161616" stroke-width="0.464371"/>
<path d="M62.662 951.708C62.662 953.076 61.5532 954.185 60.1854 954.185C58.8176 954.185 57.7087 953.076 57.7087 951.708C57.7087 950.34 58.8176 949.231 60.1854 949.231C61.5532 949.231 62.662 950.34 62.662 951.708Z" fill="#161616" stroke="#161616" stroke-width="0.464371"/>
<path d="M106.912 2.70883C106.912 4.07665 105.803 5.18548 104.435 5.18548C103.068 5.18548 101.959 4.07665 101.959 2.70883C101.959 1.34102 103.068 0.232186 104.435 0.232186C105.803 0.232186 106.912 1.34102 106.912 2.70883Z" fill="#161616" stroke="#161616" stroke-width="0.464371"/>
<path d="M106.912 42.1805C106.912 43.5483 105.803 44.6572 104.435 44.6572C103.068 44.6572 101.959 43.5483 101.959 42.1805C101.959 40.8127 103.068 39.7039 104.435 39.7039C105.803 39.7039 106.912 40.8127 106.912 42.1805Z" fill="#161616" stroke="#161616" stroke-width="0.464371"/>
<path d="M106.912 81.6522C106.912 83.02 105.803 84.1288 104.435 84.1288C103.068 84.1288 101.959 83.02 101.959 81.6522C101.959 80.2844 103.068 79.1755 104.435 79.1755C105.803 79.1755 106.912 80.2844 106.912 81.6522Z" fill="#161616" stroke="#161616" stroke-width="0.464371"/>
<path d="M106.912 121.124C106.912 122.492 105.803 123.601 104.435 123.601C103.068 123.601 101.959 122.492 101.959 121.124C101.959 119.756 103.068 118.647 104.435 118.647C105.803 118.647 106.912 119.756 106.912 121.124Z" fill="#161616" stroke="#161616" stroke-width="0.464371"/>
<path d="M106.912 160.596C106.912 161.963 105.803 163.072 104.435 163.072C103.068 163.072 101.959 161.963 101.959 160.596C101.959 159.228 103.068 158.119 104.435 158.119C105.803 158.119 106.912 159.228 106.912 160.596Z" fill="#161616" stroke="#161616" stroke-width="0.464371"/>
<path d="M106.912 200.067C106.912 201.435 105.803 202.544 104.435 202.544C103.068 202.544 101.959 201.435 101.959 200.067C101.959 198.699 103.068 197.591 104.435 197.591C105.803 197.591 106.912 198.699 106.912 200.067Z" fill="#161616" stroke="#161616" stroke-width="0.464371"/>
<path d="M106.912 239.538C106.912 240.906 105.803 242.015 104.435 242.015C103.068 242.015 101.959 240.906 101.959 239.538C101.959 238.17 103.068 237.061 104.435 237.061C105.803 237.061 106.912 238.17 106.912 239.538Z" fill="#161616" stroke="#161616" stroke-width="0.464371"/>
<path d="M106.912 279.01C106.912 280.377 105.803 281.486 104.435 281.486C103.068 281.486 101.959 280.377 101.959 279.01C101.959 277.642 103.068 276.533 104.435 276.533C105.803 276.533 106.912 277.642 106.912 279.01Z" fill="#161616" stroke="#161616" stroke-width="0.464371"/>
<path d="M106.912 318.481C106.912 319.849 105.803 320.958 104.435 320.958C103.068 320.958 101.959 319.849 101.959 318.481C101.959 317.113 103.068 316.005 104.435 316.005C105.803 316.005 106.912 317.113 106.912 318.481Z" fill="#161616" stroke="#161616" stroke-width="0.464371"/>
<path d="M106.912 357.953C106.912 359.321 105.803 360.43 104.435 360.43C103.068 360.43 101.959 359.321 101.959 357.953C101.959 356.585 103.068 355.476 104.435 355.476C105.803 355.476 106.912 356.585 106.912 357.953Z" fill="#161616" stroke="#161616" stroke-width="0.464371"/>
<path d="M106.912 397.425C106.912 398.792 105.803 399.901 104.435 399.901C103.068 399.901 101.959 398.792 101.959 397.425C101.959 396.057 103.068 394.948 104.435 394.948C105.803 394.948 106.912 396.057 106.912 397.425Z" fill="#161616" stroke="#161616" stroke-width="0.464371"/>
<path d="M106.716 436.772C107.248 438.032 106.658 439.485 105.399 440.018C104.139 440.55 102.686 439.961 102.153 438.701C101.621 437.441 102.21 435.988 103.47 435.455C104.73 434.923 106.183 435.513 106.716 436.772Z" fill="#161616" stroke="#161616" stroke-width="0.464371"/>
<path d="M106.912 478.05C106.912 479.417 105.803 480.526 104.435 480.526C103.068 480.526 101.959 479.417 101.959 478.05C101.959 476.682 103.068 475.573 104.435 475.573C105.803 475.573 106.912 476.682 106.912 478.05Z" fill="#161616" stroke="#161616" stroke-width="0.464371"/>
<path d="M106.912 517.521C106.912 518.889 105.803 519.998 104.435 519.998C103.068 519.998 101.959 518.889 101.959 517.521C101.959 516.153 103.068 515.045 104.435 515.045C105.803 515.045 106.912 516.153 106.912 517.521Z" fill="#161616" stroke="#161616" stroke-width="0.464371"/>
<path d="M106.912 556.992C106.912 558.36 105.803 559.469 104.435 559.469C103.068 559.469 101.959 558.36 101.959 556.992C101.959 555.624 103.068 554.515 104.435 554.515C105.803 554.515 106.912 555.624 106.912 556.992Z" fill="#161616" stroke="#161616" stroke-width="0.464371"/>
<path d="M106.912 596.464C106.912 597.832 105.803 598.94 104.435 598.94C103.068 598.94 101.959 597.832 101.959 596.464C101.959 595.096 103.068 593.987 104.435 593.987C105.803 593.987 106.912 595.096 106.912 596.464Z" fill="#161616" stroke="#161616" stroke-width="0.464371"/>
<path d="M106.912 635.935C106.912 637.303 105.803 638.412 104.435 638.412C103.068 638.412 101.959 637.303 101.959 635.935C101.959 634.568 103.068 633.459 104.435 633.459C105.803 633.459 106.912 634.568 106.912 635.935Z" fill="#161616" stroke="#161616" stroke-width="0.464371"/>
<path d="M106.912 675.407C106.912 676.775 105.803 677.884 104.435 677.884C103.068 677.884 101.959 676.775 101.959 675.407C101.959 674.039 103.068 672.93 104.435 672.93C105.803 672.93 106.912 674.039 106.912 675.407Z" fill="#161616" stroke="#161616" stroke-width="0.464371"/>
<path d="M106.912 714.879C106.912 716.247 105.803 717.355 104.435 717.355C103.068 717.355 101.959 716.247 101.959 714.879C101.959 713.511 103.068 712.402 104.435 712.402C105.803 712.402 106.912 713.511 106.912 714.879Z" fill="#161616" stroke="#161616" stroke-width="0.464371"/>
<path d="M106.912 754.35C106.912 755.718 105.803 756.827 104.435 756.827C103.068 756.827 101.959 755.718 101.959 754.35C101.959 752.983 103.068 751.874 104.435 751.874C105.803 751.874 106.912 752.983 106.912 754.35Z" fill="#161616" stroke="#161616" stroke-width="0.464371"/>
<path d="M106.912 793.822C106.912 795.19 105.803 796.299 104.435 796.299C103.068 796.299 101.959 795.19 101.959 793.822C101.959 792.454 103.068 791.345 104.435 791.345C105.803 791.345 106.912 792.454 106.912 793.822Z" fill="#161616" stroke="#161616" stroke-width="0.464371"/>
<path d="M106.912 833.293C106.912 834.661 105.803 835.769 104.435 835.769C103.068 835.769 101.959 834.661 101.959 833.293C101.959 831.925 103.068 830.816 104.435 830.816C105.803 830.816 106.912 831.925 106.912 833.293Z" fill="#161616" stroke="#161616" stroke-width="0.464371"/>
<path d="M106.912 872.764C106.912 874.132 105.803 875.241 104.435 875.241C103.068 875.241 101.959 874.132 101.959 872.764C101.959 871.397 103.068 870.288 104.435 870.288C105.803 870.288 106.912 871.397 106.912 872.764Z" fill="#161616" stroke="#161616" stroke-width="0.464371"/>
<path d="M106.912 912.236C106.912 913.604 105.803 914.713 104.435 914.713C103.068 914.713 101.959 913.604 101.959 912.236C101.959 910.868 103.068 909.76 104.435 909.76C105.803 909.76 106.912 910.868 106.912 912.236Z" fill="#161616" stroke="#161616" stroke-width="0.464371"/>
<path d="M106.912 951.708C106.912 953.076 105.803 954.185 104.435 954.185C103.068 954.185 101.959 953.076 101.959 951.708C101.959 950.34 103.068 949.231 104.435 949.231C105.803 949.231 106.912 950.34 106.912 951.708Z" fill="#161616" stroke="#161616" stroke-width="0.464371"/>
<path d="M151.16 2.70883C151.16 4.07665 150.051 5.18548 148.683 5.18548C147.316 5.18548 146.207 4.07665 146.207 2.70883C146.207 1.34102 147.316 0.232186 148.683 0.232186C150.051 0.232186 151.16 1.34102 151.16 2.70883Z" fill="#161616" stroke="#161616" stroke-width="0.464371"/>
<path d="M151.16 42.1805C151.16 43.5483 150.051 44.6572 148.683 44.6572C147.316 44.6572 146.207 43.5483 146.207 42.1805C146.207 40.8127 147.316 39.7039 148.683 39.7039C150.051 39.7039 151.16 40.8127 151.16 42.1805Z" fill="#161616" stroke="#161616" stroke-width="0.464371"/>
<path d="M151.16 81.6522C151.16 83.02 150.051 84.1288 148.683 84.1288C147.316 84.1288 146.207 83.02 146.207 81.6522C146.207 80.2844 147.316 79.1755 148.683 79.1755C150.051 79.1755 151.16 80.2844 151.16 81.6522Z" fill="#161616" stroke="#161616" stroke-width="0.464371"/>
<path d="M151.16 121.124C151.16 122.492 150.051 123.601 148.683 123.601C147.316 123.601 146.207 122.492 146.207 121.124C146.207 119.756 147.316 118.647 148.683 118.647C150.051 118.647 151.16 119.756 151.16 121.124Z" fill="#161616" stroke="#161616" stroke-width="0.464371"/>
<path d="M151.16 160.596C151.16 161.963 150.051 163.072 148.683 163.072C147.316 163.072 146.207 161.963 146.207 160.596C146.207 159.228 147.316 158.119 148.683 158.119C150.051 158.119 151.16 159.228 151.16 160.596Z" fill="#161616" stroke="#161616" stroke-width="0.464371"/>
<path d="M151.16 200.067C151.16 201.435 150.051 202.544 148.683 202.544C147.316 202.544 146.207 201.435 146.207 200.067C146.207 198.699 147.316 197.591 148.683 197.591C150.051 197.591 151.16 198.699 151.16 200.067Z" fill="#161616" stroke="#161616" stroke-width="0.464371"/>
<path d="M151.16 239.538C151.16 240.906 150.051 242.015 148.683 242.015C147.316 242.015 146.207 240.906 146.207 239.538C146.207 238.17 147.316 237.061 148.683 237.061C150.051 237.061 151.16 238.17 151.16 239.538Z" fill="#161616" stroke="#161616" stroke-width="0.464371"/>
<path d="M151.16 279.01C151.16 280.377 150.051 281.486 148.683 281.486C147.316 281.486 146.207 280.377 146.207 279.01C146.207 277.642 147.316 276.533 148.683 276.533C150.051 276.533 151.16 277.642 151.16 279.01Z" fill="#161616" stroke="#161616" stroke-width="0.464371"/>
<path d="M151.16 318.481C151.16 319.849 150.051 320.958 148.683 320.958C147.316 320.958 146.207 319.849 146.207 318.481C146.207 317.113 147.316 316.005 148.683 316.005C150.051 316.005 151.16 317.113 151.16 318.481Z" fill="#161616" stroke="#161616" stroke-width="0.464371"/>
<path d="M151.16 357.953C151.16 359.321 150.051 360.43 148.683 360.43C147.316 360.43 146.207 359.321 146.207 357.953C146.207 356.585 147.316 355.476 148.683 355.476C150.051 355.476 151.16 356.585 151.16 357.953Z" fill="#161616" stroke="#161616" stroke-width="0.464371"/>
<path d="M151.16 397.425C151.16 398.792 150.051 399.901 148.683 399.901C147.316 399.901 146.207 398.792 146.207 397.425C146.207 396.057 147.316 394.948 148.683 394.948C150.051 394.948 151.16 396.057 151.16 397.425Z" fill="#161616" stroke="#161616" stroke-width="0.464371"/>
<path d="M150.964 436.772C151.496 438.032 150.907 439.485 149.647 440.018C148.387 440.55 146.934 439.961 146.401 438.701C145.869 437.441 146.458 435.988 147.718 435.455C148.978 434.923 150.431 435.513 150.964 436.772Z" fill="#161616" stroke="#161616" stroke-width="0.464371"/>
<path d="M151.16 478.05C151.16 479.417 150.051 480.526 148.683 480.526C147.316 480.526 146.207 479.417 146.207 478.05C146.207 476.682 147.316 475.573 148.683 475.573C150.051 475.573 151.16 476.682 151.16 478.05Z" fill="#161616" stroke="#161616" stroke-width="0.464371"/>
<path d="M151.16 517.521C151.16 518.889 150.051 519.998 148.683 519.998C147.316 519.998 146.207 518.889 146.207 517.521C146.207 516.153 147.316 515.045 148.683 515.045C150.051 515.045 151.16 516.153 151.16 517.521Z" fill="#161616" stroke="#161616" stroke-width="0.464371"/>
<path d="M151.16 556.992C151.16 558.36 150.051 559.469 148.683 559.469C147.316 559.469 146.207 558.36 146.207 556.992C146.207 555.624 147.316 554.515 148.683 554.515C150.051 554.515 151.16 555.624 151.16 556.992Z" fill="#161616" stroke="#161616" stroke-width="0.464371"/>
<path d="M151.16 596.464C151.16 597.832 150.051 598.94 148.683 598.94C147.316 598.94 146.207 597.832 146.207 596.464C146.207 595.096 147.316 593.987 148.683 593.987C150.051 593.987 151.16 595.096 151.16 596.464Z" fill="#161616" stroke="#161616" stroke-width="0.464371"/>
<path d="M151.16 635.935C151.16 637.303 150.051 638.412 148.683 638.412C147.316 638.412 146.207 637.303 146.207 635.935C146.207 634.568 147.316 633.459 148.683 633.459C150.051 633.459 151.16 634.568 151.16 635.935Z" fill="#161616" stroke="#161616" stroke-width="0.464371"/>
<path d="M151.16 675.407C151.16 676.775 150.051 677.884 148.683 677.884C147.316 677.884 146.207 676.775 146.207 675.407C146.207 674.039 147.316 672.93 148.683 672.93C150.051 672.93 151.16 674.039 151.16 675.407Z" fill="#161616" stroke="#161616" stroke-width="0.464371"/>
<path d="M151.16 714.879C151.16 716.247 150.051 717.355 148.683 717.355C147.316 717.355 146.207 716.247 146.207 714.879C146.207 713.511 147.316 712.402 148.683 712.402C150.051 712.402 151.16 713.511 151.16 714.879Z" fill="#161616" stroke="#161616" stroke-width="0.464371"/>
<path d="M151.16 754.35C151.16 755.718 150.051 756.827 148.683 756.827C147.316 756.827 146.207 755.718 146.207 754.35C146.207 752.983 147.316 751.874 148.683 751.874C150.051 751.874 151.16 752.983 151.16 754.35Z" fill="#161616" stroke="#161616" stroke-width="0.464371"/>
<path d="M151.16 793.822C151.16 795.19 150.051 796.299 148.683 796.299C147.316 796.299 146.207 795.19 146.207 793.822C146.207 792.454 147.316 791.345 148.683 791.345C150.051 791.345 151.16 792.454 151.16 793.822Z" fill="#161616" stroke="#161616" stroke-width="0.464371"/>
<path d="M151.16 833.293C151.16 834.661 150.051 835.769 148.683 835.769C147.316 835.769 146.207 834.661 146.207 833.293C146.207 831.925 147.316 830.816 148.683 830.816C150.051 830.816 151.16 831.925 151.16 833.293Z" fill="#161616" stroke="#161616" stroke-width="0.464371"/>
<path d="M151.16 872.764C151.16 874.132 150.051 875.241 148.683 875.241C147.316 875.241 146.207 874.132 146.207 872.764C146.207 871.397 147.316 870.288 148.683 870.288C150.051 870.288 151.16 871.397 151.16 872.764Z" fill="#161616" stroke="#161616" stroke-width="0.464371"/>
<path d="M151.16 912.236C151.16 913.604 150.051 914.713 148.683 914.713C147.316 914.713 146.207 913.604 146.207 912.236C146.207 910.868 147.316 909.76 148.683 909.76C150.051 909.76 151.16 910.868 151.16 912.236Z" fill="#161616" stroke="#161616" stroke-width="0.464371"/>
<path d="M151.16 951.708C151.16 953.076 150.051 954.185 148.683 954.185C147.316 954.185 146.207 953.076 146.207 951.708C146.207 950.34 147.316 949.231 148.683 949.231C150.051 949.231 151.16 950.34 151.16 951.708Z" fill="#161616" stroke="#161616" stroke-width="0.464371"/>
<path d="M195.41 2.70883C195.41 4.07665 194.301 5.18548 192.933 5.18548C191.566 5.18548 190.457 4.07665 190.457 2.70883C190.457 1.34102 191.566 0.232186 192.933 0.232186C194.301 0.232186 195.41 1.34102 195.41 2.70883Z" fill="#161616" stroke="#161616" stroke-width="0.464371"/>
<path d="M195.41 42.1805C195.41 43.5483 194.301 44.6572 192.933 44.6572C191.566 44.6572 190.457 43.5483 190.457 42.1805C190.457 40.8127 191.566 39.7039 192.933 39.7039C194.301 39.7039 195.41 40.8127 195.41 42.1805Z" fill="#161616" stroke="#161616" stroke-width="0.464371"/>
<path d="M195.41 81.6522C195.41 83.02 194.301 84.1288 192.933 84.1288C191.566 84.1288 190.457 83.02 190.457 81.6522C190.457 80.2844 191.566 79.1755 192.933 79.1755C194.301 79.1755 195.41 80.2844 195.41 81.6522Z" fill="#161616" stroke="#161616" stroke-width="0.464371"/>
<path d="M195.41 121.124C195.41 122.492 194.301 123.601 192.933 123.601C191.566 123.601 190.457 122.492 190.457 121.124C190.457 119.756 191.566 118.647 192.933 118.647C194.301 118.647 195.41 119.756 195.41 121.124Z" fill="#161616" stroke="#161616" stroke-width="0.464371"/>
<path d="M195.41 160.596C195.41 161.963 194.301 163.072 192.933 163.072C191.566 163.072 190.457 161.963 190.457 160.596C190.457 159.228 191.566 158.119 192.933 158.119C194.301 158.119 195.41 159.228 195.41 160.596Z" fill="#161616" stroke="#161616" stroke-width="0.464371"/>
<path d="M195.41 200.067C195.41 201.435 194.301 202.544 192.933 202.544C191.566 202.544 190.457 201.435 190.457 200.067C190.457 198.699 191.566 197.591 192.933 197.591C194.301 197.591 195.41 198.699 195.41 200.067Z" fill="#161616" stroke="#161616" stroke-width="0.464371"/>
<path d="M195.41 239.538C195.41 240.906 194.301 242.015 192.933 242.015C191.566 242.015 190.457 240.906 190.457 239.538C190.457 238.17 191.566 237.061 192.933 237.061C194.301 237.061 195.41 238.17 195.41 239.538Z" fill="#161616" stroke="#161616" stroke-width="0.464371"/>
<path d="M195.41 279.01C195.41 280.377 194.301 281.486 192.933 281.486C191.566 281.486 190.457 280.377 190.457 279.01C190.457 277.642 191.566 276.533 192.933 276.533C194.301 276.533 195.41 277.642 195.41 279.01Z" fill="#161616" stroke="#161616" stroke-width="0.464371"/>
<path d="M195.41 318.481C195.41 319.849 194.301 320.958 192.933 320.958C191.566 320.958 190.457 319.849 190.457 318.481C190.457 317.113 191.566 316.005 192.933 316.005C194.301 316.005 195.41 317.113 195.41 318.481Z" fill="#161616" stroke="#161616" stroke-width="0.464371"/>
<path d="M195.41 357.953C195.41 359.321 194.301 360.43 192.933 360.43C191.566 360.43 190.457 359.321 190.457 357.953C190.457 356.585 191.566 355.476 192.933 355.476C194.301 355.476 195.41 356.585 195.41 357.953Z" fill="#161616" stroke="#161616" stroke-width="0.464371"/>
<path d="M195.41 397.425C195.41 398.792 194.301 399.901 192.933 399.901C191.566 399.901 190.457 398.792 190.457 397.425C190.457 396.057 191.566 394.948 192.933 394.948C194.301 394.948 195.41 396.057 195.41 397.425Z" fill="#161616" stroke="#161616" stroke-width="0.464371"/>
<path d="M195.214 436.772C195.746 438.032 195.157 439.485 193.897 440.018C192.637 440.55 191.184 439.961 190.651 438.701C190.119 437.441 190.708 435.988 191.968 435.455C193.228 434.923 194.681 435.513 195.214 436.772Z" fill="#161616" stroke="#161616" stroke-width="0.464371"/>
<path d="M195.41 478.05C195.41 479.417 194.301 480.526 192.933 480.526C191.566 480.526 190.457 479.417 190.457 478.05C190.457 476.682 191.566 475.573 192.933 475.573C194.301 475.573 195.41 476.682 195.41 478.05Z" fill="#161616" stroke="#161616" stroke-width="0.464371"/>
<path d="M195.41 517.521C195.41 518.889 194.301 519.998 192.933 519.998C191.566 519.998 190.457 518.889 190.457 517.521C190.457 516.153 191.566 515.045 192.933 515.045C194.301 515.045 195.41 516.153 195.41 517.521Z" fill="#161616" stroke="#161616" stroke-width="0.464371"/>
<path d="M195.41 556.992C195.41 558.36 194.301 559.469 192.933 559.469C191.566 559.469 190.457 558.36 190.457 556.992C190.457 555.624 191.566 554.515 192.933 554.515C194.301 554.515 195.41 555.624 195.41 556.992Z" fill="#161616" stroke="#161616" stroke-width="0.464371"/>
<path d="M195.41 596.464C195.41 597.832 194.301 598.94 192.933 598.94C191.566 598.94 190.457 597.832 190.457 596.464C190.457 595.096 191.566 593.987 192.933 593.987C194.301 593.987 195.41 595.096 195.41 596.464Z" fill="#161616" stroke="#161616" stroke-width="0.464371"/>
<path d="M195.41 635.935C195.41 637.303 194.301 638.412 192.933 638.412C191.566 638.412 190.457 637.303 190.457 635.935C190.457 634.568 191.566 633.459 192.933 633.459C194.301 633.459 195.41 634.568 195.41 635.935Z" fill="#161616" stroke="#161616" stroke-width="0.464371"/>
<path d="M195.41 675.407C195.41 676.775 194.301 677.884 192.933 677.884C191.566 677.884 190.457 676.775 190.457 675.407C190.457 674.039 191.566 672.93 192.933 672.93C194.301 672.93 195.41 674.039 195.41 675.407Z" fill="#161616" stroke="#161616" stroke-width="0.464371"/>
<path d="M195.41 714.879C195.41 716.247 194.301 717.355 192.933 717.355C191.566 717.355 190.457 716.247 190.457 714.879C190.457 713.511 191.566 712.402 192.933 712.402C194.301 712.402 195.41 713.511 195.41 714.879Z" fill="#161616" stroke="#161616" stroke-width="0.464371"/>
<path d="M195.41 754.35C195.41 755.718 194.301 756.827 192.933 756.827C191.566 756.827 190.457 755.718 190.457 754.35C190.457 752.983 191.566 751.874 192.933 751.874C194.301 751.874 195.41 752.983 195.41 754.35Z" fill="#161616" stroke="#161616" stroke-width="0.464371"/>
<path d="M195.41 793.822C195.41 795.19 194.301 796.299 192.933 796.299C191.566 796.299 190.457 795.19 190.457 793.822C190.457 792.454 191.566 791.345 192.933 791.345C194.301 791.345 195.41 792.454 195.41 793.822Z" fill="#161616" stroke="#161616" stroke-width="0.464371"/>
<path d="M195.41 833.293C195.41 834.661 194.301 835.769 192.933 835.769C191.566 835.769 190.457 834.661 190.457 833.293C190.457 831.925 191.566 830.816 192.933 830.816C194.301 830.816 195.41 831.925 195.41 833.293Z" fill="#161616" stroke="#161616" stroke-width="0.464371"/>
<path d="M195.41 872.764C195.41 874.132 194.301 875.241 192.933 875.241C191.566 875.241 190.457 874.132 190.457 872.764C190.457 871.397 191.566 870.288 192.933 870.288C194.301 870.288 195.41 871.397 195.41 872.764Z" fill="#161616" stroke="#161616" stroke-width="0.464371"/>
<path d="M195.41 912.236C195.41 913.604 194.301 914.713 192.933 914.713C191.566 914.713 190.457 913.604 190.457 912.236C190.457 910.868 191.566 909.76 192.933 909.76C194.301 909.76 195.41 910.868 195.41 912.236Z" fill="#161616" stroke="#161616" stroke-width="0.464371"/>
<path d="M195.41 951.708C195.41 953.076 194.301 954.185 192.933 954.185C191.566 954.185 190.457 953.076 190.457 951.708C190.457 950.34 191.566 949.231 192.933 949.231C194.301 949.231 195.41 950.34 195.41 951.708Z" fill="#161616" stroke="#161616" stroke-width="0.464371"/>
<path d="M239.658 2.70883C239.658 4.07665 238.549 5.18548 237.181 5.18548C235.814 5.18548 234.705 4.07665 234.705 2.70883C234.705 1.34102 235.814 0.232186 237.181 0.232186C238.549 0.232186 239.658 1.34102 239.658 2.70883Z" fill="#161616" stroke="#161616" stroke-width="0.464371"/>
<path d="M239.658 42.1805C239.658 43.5483 238.549 44.6572 237.181 44.6572C235.814 44.6572 234.705 43.5483 234.705 42.1805C234.705 40.8127 235.814 39.7039 237.181 39.7039C238.549 39.7039 239.658 40.8127 239.658 42.1805Z" fill="#161616" stroke="#161616" stroke-width="0.464371"/>
<path d="M239.658 81.6522C239.658 83.02 238.549 84.1288 237.181 84.1288C235.814 84.1288 234.705 83.02 234.705 81.6522C234.705 80.2844 235.814 79.1755 237.181 79.1755C238.549 79.1755 239.658 80.2844 239.658 81.6522Z" fill="#161616" stroke="#161616" stroke-width="0.464371"/>
<path d="M239.658 121.124C239.658 122.492 238.549 123.601 237.181 123.601C235.814 123.601 234.705 122.492 234.705 121.124C234.705 119.756 235.814 118.647 237.181 118.647C238.549 118.647 239.658 119.756 239.658 121.124Z" fill="#161616" stroke="#161616" stroke-width="0.464371"/>
<path d="M239.658 160.596C239.658 161.963 238.549 163.072 237.181 163.072C235.814 163.072 234.705 161.963 234.705 160.596C234.705 159.228 235.814 158.119 237.181 158.119C238.549 158.119 239.658 159.228 239.658 160.596Z" fill="#161616" stroke="#161616" stroke-width="0.464371"/>
<path d="M239.658 200.067C239.658 201.435 238.549 202.544 237.181 202.544C235.814 202.544 234.705 201.435 234.705 200.067C234.705 198.699 235.814 197.591 237.181 197.591C238.549 197.591 239.658 198.699 239.658 200.067Z" fill="#161616" stroke="#161616" stroke-width="0.464371"/>
<path d="M239.658 239.538C239.658 240.906 238.549 242.015 237.181 242.015C235.814 242.015 234.705 240.906 234.705 239.538C234.705 238.17 235.814 237.061 237.181 237.061C238.549 237.061 239.658 238.17 239.658 239.538Z" fill="#161616" stroke="#161616" stroke-width="0.464371"/>
<path d="M239.658 279.01C239.658 280.377 238.549 281.486 237.181 281.486C235.814 281.486 234.705 280.377 234.705 279.01C234.705 277.642 235.814 276.533 237.181 276.533C238.549 276.533 239.658 277.642 239.658 279.01Z" fill="#161616" stroke="#161616" stroke-width="0.464371"/>
<path d="M239.658 318.481C239.658 319.849 238.549 320.958 237.181 320.958C235.814 320.958 234.705 319.849 234.705 318.481C234.705 317.113 235.814 316.005 237.181 316.005C238.549 316.005 239.658 317.113 239.658 318.481Z" fill="#161616" stroke="#161616" stroke-width="0.464371"/>
<path d="M239.658 357.953C239.658 359.321 238.549 360.43 237.181 360.43C235.814 360.43 234.705 359.321 234.705 357.953C234.705 356.585 235.814 355.476 237.181 355.476C238.549 355.476 239.658 356.585 239.658 357.953Z" fill="#161616" stroke="#161616" stroke-width="0.464371"/>
<path d="M239.658 397.425C239.658 398.792 238.549 399.901 237.181 399.901C235.814 399.901 234.705 398.792 234.705 397.425C234.705 396.057 235.814 394.948 237.181 394.948C238.549 394.948 239.658 396.057 239.658 397.425Z" fill="#161616" stroke="#161616" stroke-width="0.464371"/>
<path d="M239.462 436.772C239.994 438.032 239.405 439.485 238.145 440.018C236.885 440.55 235.432 439.961 234.899 438.701C234.367 437.441 234.956 435.988 236.216 435.455C237.476 434.923 238.929 435.513 239.462 436.772Z" fill="#161616" stroke="#161616" stroke-width="0.464371"/>
<path d="M239.658 478.05C239.658 479.417 238.549 480.526 237.181 480.526C235.814 480.526 234.705 479.417 234.705 478.05C234.705 476.682 235.814 475.573 237.181 475.573C238.549 475.573 239.658 476.682 239.658 478.05Z" fill="#161616" stroke="#161616" stroke-width="0.464371"/>
<path d="M239.658 517.521C239.658 518.889 238.549 519.998 237.181 519.998C235.814 519.998 234.705 518.889 234.705 517.521C234.705 516.153 235.814 515.045 237.181 515.045C238.549 515.045 239.658 516.153 239.658 517.521Z" fill="#161616" stroke="#161616" stroke-width="0.464371"/>
<path d="M239.658 556.992C239.658 558.36 238.549 559.469 237.181 559.469C235.814 559.469 234.705 558.36 234.705 556.992C234.705 555.624 235.814 554.515 237.181 554.515C238.549 554.515 239.658 555.624 239.658 556.992Z" fill="#161616" stroke="#161616" stroke-width="0.464371"/>
<path d="M239.658 596.464C239.658 597.832 238.549 598.94 237.181 598.94C235.814 598.94 234.705 597.832 234.705 596.464C234.705 595.096 235.814 593.987 237.181 593.987C238.549 593.987 239.658 595.096 239.658 596.464Z" fill="#161616" stroke="#161616" stroke-width="0.464371"/>
<path d="M239.658 635.935C239.658 637.303 238.549 638.412 237.181 638.412C235.814 638.412 234.705 637.303 234.705 635.935C234.705 634.568 235.814 633.459 237.181 633.459C238.549 633.459 239.658 634.568 239.658 635.935Z" fill="#161616" stroke="#161616" stroke-width="0.464371"/>
<path d="M239.658 675.407C239.658 676.775 238.549 677.884 237.181 677.884C235.814 677.884 234.705 676.775 234.705 675.407C234.705 674.039 235.814 672.93 237.181 672.93C238.549 672.93 239.658 674.039 239.658 675.407Z" fill="#161616" stroke="#161616" stroke-width="0.464371"/>
<path d="M239.658 714.879C239.658 716.247 238.549 717.355 237.181 717.355C235.814 717.355 234.705 716.247 234.705 714.879C234.705 713.511 235.814 712.402 237.181 712.402C238.549 712.402 239.658 713.511 239.658 714.879Z" fill="#161616" stroke="#161616" stroke-width="0.464371"/>
<path d="M239.658 754.35C239.658 755.718 238.549 756.827 237.181 756.827C235.814 756.827 234.705 755.718 234.705 754.35C234.705 752.983 235.814 751.874 237.181 751.874C238.549 751.874 239.658 752.983 239.658 754.35Z" fill="#161616" stroke="#161616" stroke-width="0.464371"/>
<path d="M239.658 793.822C239.658 795.19 238.549 796.299 237.181 796.299C235.814 796.299 234.705 795.19 234.705 793.822C234.705 792.454 235.814 791.345 237.181 791.345C238.549 791.345 239.658 792.454 239.658 793.822Z" fill="#161616" stroke="#161616" stroke-width="0.464371"/>
<path d="M239.658 833.293C239.658 834.661 238.549 835.769 237.181 835.769C235.814 835.769 234.705 834.661 234.705 833.293C234.705 831.925 235.814 830.816 237.181 830.816C238.549 830.816 239.658 831.925 239.658 833.293Z" fill="#161616" stroke="#161616" stroke-width="0.464371"/>
<path d="M239.658 872.764C239.658 874.132 238.549 875.241 237.181 875.241C235.814 875.241 234.705 874.132 234.705 872.764C234.705 871.397 235.814 870.288 237.181 870.288C238.549 870.288 239.658 871.397 239.658 872.764Z" fill="#161616" stroke="#161616" stroke-width="0.464371"/>
<path d="M239.658 912.236C239.658 913.604 238.549 914.713 237.181 914.713C235.814 914.713 234.705 913.604 234.705 912.236C234.705 910.868 235.814 909.76 237.181 909.76C238.549 909.76 239.658 910.868 239.658 912.236Z" fill="#161616" stroke="#161616" stroke-width="0.464371"/>
<path d="M239.658 951.708C239.658 953.076 238.549 954.185 237.181 954.185C235.814 954.185 234.705 953.076 234.705 951.708C234.705 950.34 235.814 949.231 237.181 949.231C238.549 949.231 239.658 950.34 239.658 951.708Z" fill="#161616" stroke="#161616" stroke-width="0.464371"/>
<path d="M283.908 2.70883C283.908 4.07665 282.799 5.18548 281.431 5.18548C280.064 5.18548 278.955 4.07665 278.955 2.70883C278.955 1.34102 280.064 0.232186 281.431 0.232186C282.799 0.232186 283.908 1.34102 283.908 2.70883Z" fill="#161616" stroke="#161616" stroke-width="0.464371"/>
<path d="M283.908 42.1805C283.908 43.5483 282.799 44.6572 281.431 44.6572C280.064 44.6572 278.955 43.5483 278.955 42.1805C278.955 40.8127 280.064 39.7039 281.431 39.7039C282.799 39.7039 283.908 40.8127 283.908 42.1805Z" fill="#161616" stroke="#161616" stroke-width="0.464371"/>
<path d="M283.908 81.6522C283.908 83.02 282.799 84.1288 281.431 84.1288C280.064 84.1288 278.955 83.02 278.955 81.6522C278.955 80.2844 280.064 79.1755 281.431 79.1755C282.799 79.1755 283.908 80.2844 283.908 81.6522Z" fill="#161616" stroke="#161616" stroke-width="0.464371"/>
<path d="M283.908 121.124C283.908 122.492 282.799 123.601 281.431 123.601C280.064 123.601 278.955 122.492 278.955 121.124C278.955 119.756 280.064 118.647 281.431 118.647C282.799 118.647 283.908 119.756 283.908 121.124Z" fill="#161616" stroke="#161616" stroke-width="0.464371"/>
<path d="M283.908 160.596C283.908 161.963 282.799 163.072 281.431 163.072C280.064 163.072 278.955 161.963 278.955 160.596C278.955 159.228 280.064 158.119 281.431 158.119C282.799 158.119 283.908 159.228 283.908 160.596Z" fill="#161616" stroke="#161616" stroke-width="0.464371"/>
<path d="M283.908 200.067C283.908 201.435 282.799 202.544 281.431 202.544C280.064 202.544 278.955 201.435 278.955 200.067C278.955 198.699 280.064 197.591 281.431 197.591C282.799 197.591 283.908 198.699 283.908 200.067Z" fill="#161616" stroke="#161616" stroke-width="0.464371"/>
<path d="M283.908 239.538C283.908 240.906 282.799 242.015 281.431 242.015C280.064 242.015 278.955 240.906 278.955 239.538C278.955 238.17 280.064 237.061 281.431 237.061C282.799 237.061 283.908 238.17 283.908 239.538Z" fill="#161616" stroke="#161616" stroke-width="0.464371"/>
<path d="M283.908 279.01C283.908 280.377 282.799 281.486 281.431 281.486C280.064 281.486 278.955 280.377 278.955 279.01C278.955 277.642 280.064 276.533 281.431 276.533C282.799 276.533 283.908 277.642 283.908 279.01Z" fill="#161616" stroke="#161616" stroke-width="0.464371"/>
<path d="M283.908 318.481C283.908 319.849 282.799 320.958 281.431 320.958C280.064 320.958 278.955 319.849 278.955 318.481C278.955 317.113 280.064 316.005 281.431 316.005C282.799 316.005 283.908 317.113 283.908 318.481Z" fill="#161616" stroke="#161616" stroke-width="0.464371"/>
<path d="M283.908 357.953C283.908 359.321 282.799 360.43 281.431 360.43C280.064 360.43 278.955 359.321 278.955 357.953C278.955 356.585 280.064 355.476 281.431 355.476C282.799 355.476 283.908 356.585 283.908 357.953Z" fill="#161616" stroke="#161616" stroke-width="0.464371"/>
<path d="M283.908 397.425C283.908 398.792 282.799 399.901 281.431 399.901C280.064 399.901 278.955 398.792 278.955 397.425C278.955 396.057 280.064 394.948 281.431 394.948C282.799 394.948 283.908 396.057 283.908 397.425Z" fill="#161616" stroke="#161616" stroke-width="0.464371"/>
<path d="M283.712 436.772C284.244 438.032 283.655 439.485 282.395 440.018C281.135 440.55 279.682 439.961 279.149 438.701C278.617 437.441 279.206 435.988 280.466 435.455C281.726 434.923 283.179 435.513 283.712 436.772Z" fill="#161616" stroke="#161616" stroke-width="0.464371"/>
<path d="M283.908 478.05C283.908 479.417 282.799 480.526 281.431 480.526C280.064 480.526 278.955 479.417 278.955 478.05C278.955 476.682 280.064 475.573 281.431 475.573C282.799 475.573 283.908 476.682 283.908 478.05Z" fill="#161616" stroke="#161616" stroke-width="0.464371"/>
<path d="M283.908 517.521C283.908 518.889 282.799 519.998 281.431 519.998C280.064 519.998 278.955 518.889 278.955 517.521C278.955 516.153 280.064 515.045 281.431 515.045C282.799 515.045 283.908 516.153 283.908 517.521Z" fill="#161616" stroke="#161616" stroke-width="0.464371"/>
<path d="M283.908 556.992C283.908 558.36 282.799 559.469 281.431 559.469C280.064 559.469 278.955 558.36 278.955 556.992C278.955 555.624 280.064 554.515 281.431 554.515C282.799 554.515 283.908 555.624 283.908 556.992Z" fill="#161616" stroke="#161616" stroke-width="0.464371"/>
<path d="M283.908 596.464C283.908 597.832 282.799 598.94 281.431 598.94C280.064 598.94 278.955 597.832 278.955 596.464C278.955 595.096 280.064 593.987 281.431 593.987C282.799 593.987 283.908 595.096 283.908 596.464Z" fill="#161616" stroke="#161616" stroke-width="0.464371"/>
<path d="M283.908 635.935C283.908 637.303 282.799 638.412 281.431 638.412C280.064 638.412 278.955 637.303 278.955 635.935C278.955 634.568 280.064 633.459 281.431 633.459C282.799 633.459 283.908 634.568 283.908 635.935Z" fill="#161616" stroke="#161616" stroke-width="0.464371"/>
<path d="M283.908 675.407C283.908 676.775 282.799 677.884 281.431 677.884C280.064 677.884 278.955 676.775 278.955 675.407C278.955 674.039 280.064 672.93 281.431 672.93C282.799 672.93 283.908 674.039 283.908 675.407Z" fill="#161616" stroke="#161616" stroke-width="0.464371"/>
<path d="M283.908 714.879C283.908 716.247 282.799 717.355 281.431 717.355C280.064 717.355 278.955 716.247 278.955 714.879C278.955 713.511 280.064 712.402 281.431 712.402C282.799 712.402 283.908 713.511 283.908 714.879Z" fill="#161616" stroke="#161616" stroke-width="0.464371"/>
<path d="M283.908 754.35C283.908 755.718 282.799 756.827 281.431 756.827C280.064 756.827 278.955 755.718 278.955 754.35C278.955 752.983 280.064 751.874 281.431 751.874C282.799 751.874 283.908 752.983 283.908 754.35Z" fill="#161616" stroke="#161616" stroke-width="0.464371"/>
<path d="M283.908 793.822C283.908 795.19 282.799 796.299 281.431 796.299C280.064 796.299 278.955 795.19 278.955 793.822C278.955 792.454 280.064 791.345 281.431 791.345C282.799 791.345 283.908 792.454 283.908 793.822Z" fill="#161616" stroke="#161616" stroke-width="0.464371"/>
<path d="M283.908 833.293C283.908 834.661 282.799 835.769 281.431 835.769C280.064 835.769 278.955 834.661 278.955 833.293C278.955 831.925 280.064 830.816 281.431 830.816C282.799 830.816 283.908 831.925 283.908 833.293Z" fill="#161616" stroke="#161616" stroke-width="0.464371"/>
<path d="M283.908 872.764C283.908 874.132 282.799 875.241 281.431 875.241C280.064 875.241 278.955 874.132 278.955 872.764C278.955 871.397 280.064 870.288 281.431 870.288C282.799 870.288 283.908 871.397 283.908 872.764Z" fill="#161616" stroke="#161616" stroke-width="0.464371"/>
<path d="M283.908 912.236C283.908 913.604 282.799 914.713 281.431 914.713C280.064 914.713 278.955 913.604 278.955 912.236C278.955 910.868 280.064 909.76 281.431 909.76C282.799 909.76 283.908 910.868 283.908 912.236Z" fill="#161616" stroke="#161616" stroke-width="0.464371"/>
<path d="M283.908 951.708C283.908 953.076 282.799 954.185 281.431 954.185C280.064 954.185 278.955 953.076 278.955 951.708C278.955 950.34 280.064 949.231 281.431 949.231C282.799 949.231 283.908 950.34 283.908 951.708Z" fill="#161616" stroke="#161616" stroke-width="0.464371"/>
<path d="M328.156 2.70883C328.156 4.07665 327.047 5.18548 325.68 5.18548C324.312 5.18548 323.203 4.07665 323.203 2.70883C323.203 1.34102 324.312 0.232186 325.68 0.232186C327.047 0.232186 328.156 1.34102 328.156 2.70883Z" fill="#161616" stroke="#161616" stroke-width="0.464371"/>
<path d="M328.156 42.1805C328.156 43.5483 327.047 44.6572 325.68 44.6572C324.312 44.6572 323.203 43.5483 323.203 42.1805C323.203 40.8127 324.312 39.7039 325.68 39.7039C327.047 39.7039 328.156 40.8127 328.156 42.1805Z" fill="#161616" stroke="#161616" stroke-width="0.464371"/>
<path d="M328.156 81.6522C328.156 83.02 327.047 84.1288 325.68 84.1288C324.312 84.1288 323.203 83.02 323.203 81.6522C323.203 80.2844 324.312 79.1755 325.68 79.1755C327.047 79.1755 328.156 80.2844 328.156 81.6522Z" fill="#161616" stroke="#161616" stroke-width="0.464371"/>
<path d="M328.156 121.124C328.156 122.492 327.047 123.601 325.68 123.601C324.312 123.601 323.203 122.492 323.203 121.124C323.203 119.756 324.312 118.647 325.68 118.647C327.047 118.647 328.156 119.756 328.156 121.124Z" fill="#161616" stroke="#161616" stroke-width="0.464371"/>
<path d="M328.156 160.596C328.156 161.963 327.047 163.072 325.68 163.072C324.312 163.072 323.203 161.963 323.203 160.596C323.203 159.228 324.312 158.119 325.68 158.119C327.047 158.119 328.156 159.228 328.156 160.596Z" fill="#161616" stroke="#161616" stroke-width="0.464371"/>
<path d="M328.156 200.067C328.156 201.435 327.047 202.544 325.68 202.544C324.312 202.544 323.203 201.435 323.203 200.067C323.203 198.699 324.312 197.591 325.68 197.591C327.047 197.591 328.156 198.699 328.156 200.067Z" fill="#161616" stroke="#161616" stroke-width="0.464371"/>
<path d="M328.156 239.538C328.156 240.906 327.047 242.015 325.68 242.015C324.312 242.015 323.203 240.906 323.203 239.538C323.203 238.17 324.312 237.061 325.68 237.061C327.047 237.061 328.156 238.17 328.156 239.538Z" fill="#161616" stroke="#161616" stroke-width="0.464371"/>
<path d="M328.156 279.01C328.156 280.377 327.047 281.486 325.68 281.486C324.312 281.486 323.203 280.377 323.203 279.01C323.203 277.642 324.312 276.533 325.68 276.533C327.047 276.533 328.156 277.642 328.156 279.01Z" fill="#161616" stroke="#161616" stroke-width="0.464371"/>
<path d="M328.156 318.481C328.156 319.849 327.047 320.958 325.68 320.958C324.312 320.958 323.203 319.849 323.203 318.481C323.203 317.113 324.312 316.005 325.68 316.005C327.047 316.005 328.156 317.113 328.156 318.481Z" fill="#161616" stroke="#161616" stroke-width="0.464371"/>
<path d="M328.156 357.953C328.156 359.321 327.047 360.43 325.68 360.43C324.312 360.43 323.203 359.321 323.203 357.953C323.203 356.585 324.312 355.476 325.68 355.476C327.047 355.476 328.156 356.585 328.156 357.953Z" fill="#161616" stroke="#161616" stroke-width="0.464371"/>
<path d="M328.156 397.425C328.156 398.792 327.047 399.901 325.68 399.901C324.312 399.901 323.203 398.792 323.203 397.425C323.203 396.057 324.312 394.948 325.68 394.948C327.047 394.948 328.156 396.057 328.156 397.425Z" fill="#161616" stroke="#161616" stroke-width="0.464371"/>
<path d="M327.962 436.772C328.494 438.032 327.905 439.485 326.645 440.018C325.385 440.55 323.932 439.961 323.399 438.701C322.867 437.441 323.456 435.988 324.716 435.455C325.976 434.923 327.429 435.513 327.962 436.772Z" fill="#161616" stroke="#161616" stroke-width="0.464371"/>
<path d="M328.156 478.05C328.156 479.417 327.047 480.526 325.68 480.526C324.312 480.526 323.203 479.417 323.203 478.05C323.203 476.682 324.312 475.573 325.68 475.573C327.047 475.573 328.156 476.682 328.156 478.05Z" fill="#161616" stroke="#161616" stroke-width="0.464371"/>
<path d="M328.156 517.521C328.156 518.889 327.047 519.998 325.68 519.998C324.312 519.998 323.203 518.889 323.203 517.521C323.203 516.153 324.312 515.045 325.68 515.045C327.047 515.045 328.156 516.153 328.156 517.521Z" fill="#161616" stroke="#161616" stroke-width="0.464371"/>
<path d="M328.156 556.992C328.156 558.36 327.047 559.469 325.68 559.469C324.312 559.469 323.203 558.36 323.203 556.992C323.203 555.624 324.312 554.515 325.68 554.515C327.047 554.515 328.156 555.624 328.156 556.992Z" fill="#161616" stroke="#161616" stroke-width="0.464371"/>
<path d="M328.156 596.464C328.156 597.832 327.047 598.94 325.68 598.94C324.312 598.94 323.203 597.832 323.203 596.464C323.203 595.096 324.312 593.987 325.68 593.987C327.047 593.987 328.156 595.096 328.156 596.464Z" fill="#161616" stroke="#161616" stroke-width="0.464371"/>
<path d="M328.156 635.935C328.156 637.303 327.047 638.412 325.68 638.412C324.312 638.412 323.203 637.303 323.203 635.935C323.203 634.568 324.312 633.459 325.68 633.459C327.047 633.459 328.156 634.568 328.156 635.935Z" fill="#161616" stroke="#161616" stroke-width="0.464371"/>
<path d="M328.156 675.407C328.156 676.775 327.047 677.884 325.68 677.884C324.312 677.884 323.203 676.775 323.203 675.407C323.203 674.039 324.312 672.93 325.68 672.93C327.047 672.93 328.156 674.039 328.156 675.407Z" fill="#161616" stroke="#161616" stroke-width="0.464371"/>
<path d="M328.156 714.879C328.156 716.247 327.047 717.355 325.68 717.355C324.312 717.355 323.203 716.247 323.203 714.879C323.203 713.511 324.312 712.402 325.68 712.402C327.047 712.402 328.156 713.511 328.156 714.879Z" fill="#161616" stroke="#161616" stroke-width="0.464371"/>
<path d="M328.156 754.35C328.156 755.718 327.047 756.827 325.68 756.827C324.312 756.827 323.203 755.718 323.203 754.35C323.203 752.983 324.312 751.874 325.68 751.874C327.047 751.874 328.156 752.983 328.156 754.35Z" fill="#161616" stroke="#161616" stroke-width="0.464371"/>
<path d="M328.156 793.822C328.156 795.19 327.047 796.299 325.68 796.299C324.312 796.299 323.203 795.19 323.203 793.822C323.203 792.454 324.312 791.345 325.68 791.345C327.047 791.345 328.156 792.454 328.156 793.822Z" fill="#161616" stroke="#161616" stroke-width="0.464371"/>
<path d="M328.156 833.293C328.156 834.661 327.047 835.769 325.68 835.769C324.312 835.769 323.203 834.661 323.203 833.293C323.203 831.925 324.312 830.816 325.68 830.816C327.047 830.816 328.156 831.925 328.156 833.293Z" fill="#161616" stroke="#161616" stroke-width="0.464371"/>
<path d="M328.156 872.764C328.156 874.132 327.047 875.241 325.68 875.241C324.312 875.241 323.203 874.132 323.203 872.764C323.203 871.397 324.312 870.288 325.68 870.288C327.047 870.288 328.156 871.397 328.156 872.764Z" fill="#161616" stroke="#161616" stroke-width="0.464371"/>
<path d="M328.156 912.236C328.156 913.604 327.047 914.713 325.68 914.713C324.312 914.713 323.203 913.604 323.203 912.236C323.203 910.868 324.312 909.76 325.68 909.76C327.047 909.76 328.156 910.868 328.156 912.236Z" fill="#161616" stroke="#161616" stroke-width="0.464371"/>
<path d="M328.156 951.708C328.156 953.076 327.047 954.185 325.68 954.185C324.312 954.185 323.203 953.076 323.203 951.708C323.203 950.34 324.312 949.231 325.68 949.231C327.047 949.231 328.156 950.34 328.156 951.708Z" fill="#161616" stroke="#161616" stroke-width="0.464371"/>
<path d="M372.404 2.70883C372.404 4.07665 371.295 5.18548 369.928 5.18548C368.56 5.18548 367.451 4.07665 367.451 2.70883C367.451 1.34102 368.56 0.232186 369.928 0.232186C371.295 0.232186 372.404 1.34102 372.404 2.70883Z" fill="#161616" stroke="#161616" stroke-width="0.464371"/>
<path d="M372.404 42.1805C372.404 43.5483 371.295 44.6572 369.928 44.6572C368.56 44.6572 367.451 43.5483 367.451 42.1805C367.451 40.8127 368.56 39.7039 369.928 39.7039C371.295 39.7039 372.404 40.8127 372.404 42.1805Z" fill="#161616" stroke="#161616" stroke-width="0.464371"/>
<path d="M372.404 81.6522C372.404 83.02 371.295 84.1288 369.928 84.1288C368.56 84.1288 367.451 83.02 367.451 81.6522C367.451 80.2844 368.56 79.1755 369.928 79.1755C371.295 79.1755 372.404 80.2844 372.404 81.6522Z" fill="#161616" stroke="#161616" stroke-width="0.464371"/>
<path d="M372.404 121.124C372.404 122.492 371.295 123.601 369.928 123.601C368.56 123.601 367.451 122.492 367.451 121.124C367.451 119.756 368.56 118.647 369.928 118.647C371.295 118.647 372.404 119.756 372.404 121.124Z" fill="#161616" stroke="#161616" stroke-width="0.464371"/>
<path d="M372.404 160.596C372.404 161.963 371.295 163.072 369.928 163.072C368.56 163.072 367.451 161.963 367.451 160.596C367.451 159.228 368.56 158.119 369.928 158.119C371.295 158.119 372.404 159.228 372.404 160.596Z" fill="#161616" stroke="#161616" stroke-width="0.464371"/>
<path d="M372.404 200.067C372.404 201.435 371.295 202.544 369.928 202.544C368.56 202.544 367.451 201.435 367.451 200.067C367.451 198.699 368.56 197.591 369.928 197.591C371.295 197.591 372.404 198.699 372.404 200.067Z" fill="#161616" stroke="#161616" stroke-width="0.464371"/>
<path d="M372.404 239.538C372.404 240.906 371.295 242.015 369.928 242.015C368.56 242.015 367.451 240.906 367.451 239.538C367.451 238.17 368.56 237.061 369.928 237.061C371.295 237.061 372.404 238.17 372.404 239.538Z" fill="#161616" stroke="#161616" stroke-width="0.464371"/>
<path d="M372.404 279.01C372.404 280.377 371.295 281.486 369.928 281.486C368.56 281.486 367.451 280.377 367.451 279.01C367.451 277.642 368.56 276.533 369.928 276.533C371.295 276.533 372.404 277.642 372.404 279.01Z" fill="#161616" stroke="#161616" stroke-width="0.464371"/>
<path d="M372.404 318.481C372.404 319.849 371.295 320.958 369.928 320.958C368.56 320.958 367.451 319.849 367.451 318.481C367.451 317.113 368.56 316.005 369.928 316.005C371.295 316.005 372.404 317.113 372.404 318.481Z" fill="#161616" stroke="#161616" stroke-width="0.464371"/>
<path d="M372.404 357.953C372.404 359.321 371.295 360.43 369.928 360.43C368.56 360.43 367.451 359.321 367.451 357.953C367.451 356.585 368.56 355.476 369.928 355.476C371.295 355.476 372.404 356.585 372.404 357.953Z" fill="#161616" stroke="#161616" stroke-width="0.464371"/>
<path d="M372.404 397.425C372.404 398.792 371.295 399.901 369.928 399.901C368.56 399.901 367.451 398.792 367.451 397.425C367.451 396.057 368.56 394.948 369.928 394.948C371.295 394.948 372.404 396.057 372.404 397.425Z" fill="#161616" stroke="#161616" stroke-width="0.464371"/>
<path d="M372.21 436.772C372.742 438.032 372.153 439.485 370.893 440.018C369.633 440.55 368.18 439.961 367.647 438.701C367.115 437.441 367.705 435.988 368.964 435.455C370.224 434.923 371.677 435.513 372.21 436.772Z" fill="#161616" stroke="#161616" stroke-width="0.464371"/>
<path d="M372.404 478.05C372.404 479.417 371.295 480.526 369.928 480.526C368.56 480.526 367.451 479.417 367.451 478.05C367.451 476.682 368.56 475.573 369.928 475.573C371.295 475.573 372.404 476.682 372.404 478.05Z" fill="#161616" stroke="#161616" stroke-width="0.464371"/>
<path d="M372.404 517.521C372.404 518.889 371.295 519.998 369.928 519.998C368.56 519.998 367.451 518.889 367.451 517.521C367.451 516.153 368.56 515.045 369.928 515.045C371.295 515.045 372.404 516.153 372.404 517.521Z" fill="#161616" stroke="#161616" stroke-width="0.464371"/>
<path d="M372.404 556.992C372.404 558.36 371.295 559.469 369.928 559.469C368.56 559.469 367.451 558.36 367.451 556.992C367.451 555.624 368.56 554.515 369.928 554.515C371.295 554.515 372.404 555.624 372.404 556.992Z" fill="#161616" stroke="#161616" stroke-width="0.464371"/>
<path d="M372.404 596.464C372.404 597.832 371.295 598.94 369.928 598.94C368.56 598.94 367.451 597.832 367.451 596.464C367.451 595.096 368.56 593.987 369.928 593.987C371.295 593.987 372.404 595.096 372.404 596.464Z" fill="#161616" stroke="#161616" stroke-width="0.464371"/>
<path d="M372.404 635.935C372.404 637.303 371.295 638.412 369.928 638.412C368.56 638.412 367.451 637.303 367.451 635.935C367.451 634.568 368.56 633.459 369.928 633.459C371.295 633.459 372.404 634.568 372.404 635.935Z" fill="#161616" stroke="#161616" stroke-width="0.464371"/>
<path d="M372.404 675.407C372.404 676.775 371.295 677.884 369.928 677.884C368.56 677.884 367.451 676.775 367.451 675.407C367.451 674.039 368.56 672.93 369.928 672.93C371.295 672.93 372.404 674.039 372.404 675.407Z" fill="#161616" stroke="#161616" stroke-width="0.464371"/>
<path d="M372.404 714.879C372.404 716.247 371.295 717.355 369.928 717.355C368.56 717.355 367.451 716.247 367.451 714.879C367.451 713.511 368.56 712.402 369.928 712.402C371.295 712.402 372.404 713.511 372.404 714.879Z" fill="#161616" stroke="#161616" stroke-width="0.464371"/>
<path d="M372.404 754.35C372.404 755.718 371.295 756.827 369.928 756.827C368.56 756.827 367.451 755.718 367.451 754.35C367.451 752.983 368.56 751.874 369.928 751.874C371.295 751.874 372.404 752.983 372.404 754.35Z" fill="#161616" stroke="#161616" stroke-width="0.464371"/>
<path d="M372.404 793.822C372.404 795.19 371.295 796.299 369.928 796.299C368.56 796.299 367.451 795.19 367.451 793.822C367.451 792.454 368.56 791.345 369.928 791.345C371.295 791.345 372.404 792.454 372.404 793.822Z" fill="#161616" stroke="#161616" stroke-width="0.464371"/>
<path d="M372.404 833.293C372.404 834.661 371.295 835.769 369.928 835.769C368.56 835.769 367.451 834.661 367.451 833.293C367.451 831.925 368.56 830.816 369.928 830.816C371.295 830.816 372.404 831.925 372.404 833.293Z" fill="#161616" stroke="#161616" stroke-width="0.464371"/>
<path d="M372.404 872.764C372.404 874.132 371.295 875.241 369.928 875.241C368.56 875.241 367.451 874.132 367.451 872.764C367.451 871.397 368.56 870.288 369.928 870.288C371.295 870.288 372.404 871.397 372.404 872.764Z" fill="#161616" stroke="#161616" stroke-width="0.464371"/>
<path d="M372.404 912.236C372.404 913.604 371.295 914.713 369.928 914.713C368.56 914.713 367.451 913.604 367.451 912.236C367.451 910.868 368.56 909.76 369.928 909.76C371.295 909.76 372.404 910.868 372.404 912.236Z" fill="#161616" stroke="#161616" stroke-width="0.464371"/>
<path d="M372.404 951.708C372.404 953.076 371.295 954.185 369.928 954.185C368.56 954.185 367.451 953.076 367.451 951.708C367.451 950.34 368.56 949.231 369.928 949.231C371.295 949.231 372.404 950.34 372.404 951.708Z" fill="#161616" stroke="#161616" stroke-width="0.464371"/>
<path d="M416.654 2.70883C416.654 4.07665 415.545 5.18548 414.178 5.18548C412.81 5.18548 411.701 4.07665 411.701 2.70883C411.701 1.34102 412.81 0.232186 414.178 0.232186C415.545 0.232186 416.654 1.34102 416.654 2.70883Z" fill="#161616" stroke="#161616" stroke-width="0.464371"/>
<path d="M416.654 42.1805C416.654 43.5483 415.545 44.6572 414.178 44.6572C412.81 44.6572 411.701 43.5483 411.701 42.1805C411.701 40.8127 412.81 39.7039 414.178 39.7039C415.545 39.7039 416.654 40.8127 416.654 42.1805Z" fill="#161616" stroke="#161616" stroke-width="0.464371"/>
<path d="M416.654 81.6522C416.654 83.02 415.545 84.1288 414.178 84.1288C412.81 84.1288 411.701 83.02 411.701 81.6522C411.701 80.2844 412.81 79.1755 414.178 79.1755C415.545 79.1755 416.654 80.2844 416.654 81.6522Z" fill="#161616" stroke="#161616" stroke-width="0.464371"/>
<path d="M416.654 121.124C416.654 122.492 415.545 123.601 414.178 123.601C412.81 123.601 411.701 122.492 411.701 121.124C411.701 119.756 412.81 118.647 414.178 118.647C415.545 118.647 416.654 119.756 416.654 121.124Z" fill="#161616" stroke="#161616" stroke-width="0.464371"/>
<path d="M416.654 160.596C416.654 161.963 415.545 163.072 414.178 163.072C412.81 163.072 411.701 161.963 411.701 160.596C411.701 159.228 412.81 158.119 414.178 158.119C415.545 158.119 416.654 159.228 416.654 160.596Z" fill="#161616" stroke="#161616" stroke-width="0.464371"/>
<path d="M416.654 200.067C416.654 201.435 415.545 202.544 414.178 202.544C412.81 202.544 411.701 201.435 411.701 200.067C411.701 198.699 412.81 197.591 414.178 197.591C415.545 197.591 416.654 198.699 416.654 200.067Z" fill="#161616" stroke="#161616" stroke-width="0.464371"/>
<path d="M416.654 239.538C416.654 240.906 415.545 242.015 414.178 242.015C412.81 242.015 411.701 240.906 411.701 239.538C411.701 238.17 412.81 237.061 414.178 237.061C415.545 237.061 416.654 238.17 416.654 239.538Z" fill="#161616" stroke="#161616" stroke-width="0.464371"/>
<path d="M416.654 279.01C416.654 280.377 415.545 281.486 414.178 281.486C412.81 281.486 411.701 280.377 411.701 279.01C411.701 277.642 412.81 276.533 414.178 276.533C415.545 276.533 416.654 277.642 416.654 279.01Z" fill="#161616" stroke="#161616" stroke-width="0.464371"/>
<path d="M416.654 318.481C416.654 319.849 415.545 320.958 414.178 320.958C412.81 320.958 411.701 319.849 411.701 318.481C411.701 317.113 412.81 316.005 414.178 316.005C415.545 316.005 416.654 317.113 416.654 318.481Z" fill="#161616" stroke="#161616" stroke-width="0.464371"/>
<path d="M416.654 357.953C416.654 359.321 415.545 360.43 414.178 360.43C412.81 360.43 411.701 359.321 411.701 357.953C411.701 356.585 412.81 355.476 414.178 355.476C415.545 355.476 416.654 356.585 416.654 357.953Z" fill="#161616" stroke="#161616" stroke-width="0.464371"/>
<path d="M416.654 397.425C416.654 398.792 415.545 399.901 414.178 399.901C412.81 399.901 411.701 398.792 411.701 397.425C411.701 396.057 412.81 394.948 414.178 394.948C415.545 394.948 416.654 396.057 416.654 397.425Z" fill="#161616" stroke="#161616" stroke-width="0.464371"/>
<path d="M416.46 436.772C416.992 438.032 416.403 439.485 415.143 440.018C413.883 440.55 412.43 439.961 411.897 438.701C411.365 437.441 411.955 435.988 413.214 435.455C414.474 434.923 415.927 435.513 416.46 436.772Z" fill="#161616" stroke="#161616" stroke-width="0.464371"/>
<path d="M416.654 478.05C416.654 479.417 415.545 480.526 414.178 480.526C412.81 480.526 411.701 479.417 411.701 478.05C411.701 476.682 412.81 475.573 414.178 475.573C415.545 475.573 416.654 476.682 416.654 478.05Z" fill="#161616" stroke="#161616" stroke-width="0.464371"/>
<path d="M416.654 517.521C416.654 518.889 415.545 519.998 414.178 519.998C412.81 519.998 411.701 518.889 411.701 517.521C411.701 516.153 412.81 515.045 414.178 515.045C415.545 515.045 416.654 516.153 416.654 517.521Z" fill="#161616" stroke="#161616" stroke-width="0.464371"/>
<path d="M416.654 556.992C416.654 558.36 415.545 559.469 414.178 559.469C412.81 559.469 411.701 558.36 411.701 556.992C411.701 555.624 412.81 554.515 414.178 554.515C415.545 554.515 416.654 555.624 416.654 556.992Z" fill="#161616" stroke="#161616" stroke-width="0.464371"/>
<path d="M416.654 596.464C416.654 597.832 415.545 598.94 414.178 598.94C412.81 598.94 411.701 597.832 411.701 596.464C411.701 595.096 412.81 593.987 414.178 593.987C415.545 593.987 416.654 595.096 416.654 596.464Z" fill="#161616" stroke="#161616" stroke-width="0.464371"/>
<path d="M416.654 635.935C416.654 637.303 415.545 638.412 414.178 638.412C412.81 638.412 411.701 637.303 411.701 635.935C411.701 634.568 412.81 633.459 414.178 633.459C415.545 633.459 416.654 634.568 416.654 635.935Z" fill="#161616" stroke="#161616" stroke-width="0.464371"/>
<path d="M416.654 675.407C416.654 676.775 415.545 677.884 414.178 677.884C412.81 677.884 411.701 676.775 411.701 675.407C411.701 674.039 412.81 672.93 414.178 672.93C415.545 672.93 416.654 674.039 416.654 675.407Z" fill="#161616" stroke="#161616" stroke-width="0.464371"/>
<path d="M416.654 714.879C416.654 716.247 415.545 717.355 414.178 717.355C412.81 717.355 411.701 716.247 411.701 714.879C411.701 713.511 412.81 712.402 414.178 712.402C415.545 712.402 416.654 713.511 416.654 714.879Z" fill="#161616" stroke="#161616" stroke-width="0.464371"/>
<path d="M416.654 754.35C416.654 755.718 415.545 756.827 414.178 756.827C412.81 756.827 411.701 755.718 411.701 754.35C411.701 752.983 412.81 751.874 414.178 751.874C415.545 751.874 416.654 752.983 416.654 754.35Z" fill="#161616" stroke="#161616" stroke-width="0.464371"/>
<path d="M416.654 793.822C416.654 795.19 415.545 796.299 414.178 796.299C412.81 796.299 411.701 795.19 411.701 793.822C411.701 792.454 412.81 791.345 414.178 791.345C415.545 791.345 416.654 792.454 416.654 793.822Z" fill="#161616" stroke="#161616" stroke-width="0.464371"/>
<path d="M416.654 833.293C416.654 834.661 415.545 835.769 414.178 835.769C412.81 835.769 411.701 834.661 411.701 833.293C411.701 831.925 412.81 830.816 414.178 830.816C415.545 830.816 416.654 831.925 416.654 833.293Z" fill="#161616" stroke="#161616" stroke-width="0.464371"/>
<path d="M416.654 872.764C416.654 874.132 415.545 875.241 414.178 875.241C412.81 875.241 411.701 874.132 411.701 872.764C411.701 871.397 412.81 870.288 414.178 870.288C415.545 870.288 416.654 871.397 416.654 872.764Z" fill="#161616" stroke="#161616" stroke-width="0.464371"/>
<path d="M416.654 912.236C416.654 913.604 415.545 914.713 414.178 914.713C412.81 914.713 411.701 913.604 411.701 912.236C411.701 910.868 412.81 909.76 414.178 909.76C415.545 909.76 416.654 910.868 416.654 912.236Z" fill="#161616" stroke="#161616" stroke-width="0.464371"/>
<path d="M416.654 951.708C416.654 953.076 415.545 954.185 414.178 954.185C412.81 954.185 411.701 953.076 411.701 951.708C411.701 950.34 412.81 949.231 414.178 949.231C415.545 949.231 416.654 950.34 416.654 951.708Z" fill="#161616" stroke="#161616" stroke-width="0.464371"/>
</g>
<defs>
<clipPath id="clip0_1054_15081">
<rect width="430" height="955" fill="white"/>
</clipPath>
</defs>
</svg>
