<svg width="120" height="13" viewBox="0 0 120 13" fill="none" xmlns="http://www.w3.org/2000/svg">
<path d="M111.252 11.7586V0.558594H119.38V3.08659H113.844V4.83059H118.98V7.35859H113.844V9.23059H119.46V11.7586H111.252Z" fill="#FC560F"/>
<path d="M97.0454 4.04659V11.7586H94.3574V0.558594H98.6774L100.853 7.24659C101.093 7.93459 101.029 8.84659 101.029 9.56659H101.477C101.477 8.84659 101.413 7.91859 101.637 7.24659L103.813 0.558594H108.117V11.7586H105.429V4.04659C105.429 3.34259 105.717 2.41459 105.813 1.71059L105.381 1.64659C105.285 2.35059 105.285 3.31059 105.077 3.99859L102.885 11.7586H99.6054L97.3814 3.99859C97.1734 3.31059 97.1894 2.36659 97.0774 1.64659L96.6454 1.72659C96.7574 2.43059 97.0454 3.34259 97.0454 4.04659Z" fill="#FC560F"/>
<path d="M83.181 11.7586H80.493V3.08659H77.709V0.558594H85.965V3.08659H83.181V11.7586Z" fill="#FC560F"/>
<path d="M70.139 11.9986C66.635 11.9986 64.059 9.4866 64.043 6.1426C64.059 2.8146 66.587 0.318604 70.027 0.318604C74.027 0.318604 75.355 2.4626 75.483 4.5586H72.811C72.619 3.9346 72.395 2.9426 70.091 2.9426C68.283 2.9426 66.747 3.7746 66.747 6.1586C66.747 8.5266 68.267 9.3746 70.059 9.3746C72.539 9.3746 72.779 8.3666 72.987 7.7586H75.659C75.387 10.4306 73.915 11.9986 70.139 11.9986Z" fill="#FC560F"/>
<path d="M51.3672 11.7426L55.4312 0.526611H58.2952L62.5992 11.7426H59.8472L58.4232 7.91861H55.3992L54.1192 11.7426H51.3672ZM58.2152 6.03061L57.1752 3.91861C56.9992 3.55061 57.0952 3.03861 57.0952 2.62261H56.6632C56.6632 3.03861 56.7592 3.55061 56.5992 3.91861L55.5752 6.03061H58.2152Z" fill="#FC560F"/>
<path d="M46.845 11.7586H44.157V3.08659H41.373V0.558594H49.6291V3.08659H46.845V11.7586Z" fill="#FC560F"/>
<path d="M30.2036 6.20659V11.7586H27.5156V0.558594H30.2036L34.8116 6.36659C35.2436 6.92659 35.4836 7.80659 35.7076 8.46259L36.1236 8.31859C35.8996 7.66259 35.5316 6.83059 35.5316 6.12659V0.558594H38.2356V11.7586H35.5316L30.9236 5.95059C30.4916 5.40659 30.2676 4.52659 30.0276 3.87059L29.6116 4.01459C29.8516 4.67059 30.2036 5.50259 30.2036 6.20659Z" fill="#FC560F"/>
<path d="M13.4395 6.1586C13.4395 2.8626 16.0315 0.318604 19.1195 0.318604C22.2075 0.318604 24.7995 3.1346 24.7995 6.1586C24.7995 9.1826 22.2075 12.0146 19.1195 12.0146C16.0315 12.0146 13.4395 9.4546 13.4395 6.1586ZM16.1435 6.1586C16.1435 7.5986 16.9595 9.3906 19.1195 9.3906C21.2955 9.3906 22.1115 7.5986 22.1115 6.1586C22.1115 4.7186 21.2955 2.9266 19.1195 2.9266C16.9595 2.9266 16.1435 4.7186 16.1435 6.1586Z" fill="#FC560F"/>
<path d="M6.096 11.9986C2.592 11.9986 0.016 9.4866 0 6.1426C0.016 2.8146 2.544 0.318604 5.984 0.318604C9.984 0.318604 11.312 2.4626 11.44 4.5586H8.768C8.576 3.9346 8.352 2.9426 6.048 2.9426C4.24 2.9426 2.704 3.7746 2.704 6.1586C2.704 8.5266 4.224 9.3746 6.016 9.3746C8.496 9.3746 8.736 8.3666 8.944 7.7586H11.616C11.344 10.4306 9.872 11.9986 6.096 11.9986Z" fill="#FC560F"/>
</svg>
