<svg width="25" height="24" viewBox="0 0 25 24" fill="none" xmlns="http://www.w3.org/2000/svg">
<g clip-path="url(#clip0_755_5047)">
<path d="M12.6816 0C6.08164 0 0.681641 5.4 0.681641 12C0.681641 18.6 6.08164 24 12.6816 24C19.2816 24 24.6816 18.6 24.6816 12C24.6816 5.4 19.2816 0 12.6816 0ZM12.6816 21.6C7.40164 21.6 3.08164 17.28 3.08164 12C3.08164 6.72 7.40164 2.4 12.6816 2.4C17.9616 2.4 22.2816 6.72 22.2816 12C22.2816 17.28 17.9616 21.6 12.6816 21.6Z" fill="#FFCDB8"/>
<path d="M12.6816 8.4C13.6416 8.4 14.6016 8.76 15.2016 9.48L16.8816 7.8C15.8016 6.6 14.2416 6 12.6816 6C9.32164 6 6.68164 8.64 6.68164 12C6.68164 15.36 9.32164 18 12.6816 18C14.2416 18 15.8016 17.4 16.8816 16.2L15.2016 14.52C14.4816 15.24 13.6416 15.6 12.6816 15.6C10.6416 15.6 9.08164 14.04 9.08164 12C9.08164 9.96 10.6416 8.4 12.6816 8.4Z" fill="#FFCDB8"/>
</g>
<defs>
<clipPath id="clip0_755_5047">
<rect width="24" height="24" fill="white" transform="translate(0.681641)"/>
</clipPath>
</defs>
</svg>
