<svg width="18" height="19" viewBox="0 0 18 19" fill="none" xmlns="http://www.w3.org/2000/svg">
<path d="M2 18.0146C1.45 18.0146 0.979167 17.8188 0.5875 17.4271C0.195833 17.0355 0 16.5646 0 16.0146V2.01465C0 1.46465 0.195833 0.993815 0.5875 0.602148C0.979167 0.210482 1.45 0.0146484 2 0.0146484H9V2.01465H2V16.0146H16V9.01465H18V16.0146C18 16.5646 17.8042 17.0355 17.4125 17.4271C17.0208 17.8188 16.55 18.0146 16 18.0146H2ZM6.7 12.7146L5.3 11.3146L14.6 2.01465H11V0.0146484H18V7.01465H16V3.41465L6.7 12.7146Z" fill="#1C1B1F"/>
</svg>
