<svg width="24" height="25" viewBox="0 0 24 25" fill="none" xmlns="http://www.w3.org/2000/svg">
<mask id="mask0_755_5036" style="mask-type:alpha" maskUnits="userSpaceOnUse" x="0" y="0" width="24" height="25">
<rect y="0.348633" width="24" height="24" fill="#D9D9D9"/>
</mask>
<g mask="url(#mask0_755_5036)">
<path d="M5 21.3486C4.45 21.3486 3.97917 21.1528 3.5875 20.7611C3.19583 20.3695 3 19.8986 3 19.3486V5.34863C3 4.79863 3.19583 4.3278 3.5875 3.93613C3.97917 3.54447 4.45 3.34863 5 3.34863H12V5.34863H5V19.3486H19V12.3486H21V19.3486C21 19.8986 20.8042 20.3695 20.4125 20.7611C20.0208 21.1528 19.55 21.3486 19 21.3486H5ZM9.7 16.0486L8.3 14.6486L17.6 5.34863H14V3.34863H21V10.3486H19V6.74863L9.7 16.0486Z" fill="white"/>
</g>
</svg>
