<svg width="32" height="32" viewBox="0 0 32 32" fill="none" xmlns="http://www.w3.org/2000/svg">
<mask id="mask0_792_6188" style="mask-type:alpha" maskUnits="userSpaceOnUse" x="-4" y="-4" width="40" height="40">
<rect x="-3.69336" y="-3.69238" width="39.3846" height="39.3846" fill="#FC560F"/>
</mask>
<g mask="url(#mask0_792_6188)">
<path d="M4.51252 30.7689C3.60996 30.7689 2.83731 30.4476 2.19457 29.8048C1.55184 29.1621 1.23047 28.3894 1.23047 27.4869V4.51252C1.23047 3.60996 1.55184 2.83731 2.19457 2.19457C2.83731 1.55184 3.60996 1.23047 4.51252 1.23047H15.9997V4.51252H4.51252V27.4869H27.4869V15.9997H30.7689V27.4869C30.7689 28.3894 30.4476 29.1621 29.8048 29.8048C29.1621 30.4476 28.3894 30.7689 27.4869 30.7689H4.51252ZM12.2253 22.0715L9.92791 19.7741L25.1894 4.51252H19.2818V1.23047H30.7689V12.7176H27.4869V6.80996L12.2253 22.0715Z" fill="white"/>
</g>
</svg>
