<svg width="370" height="16" viewBox="0 0 370 16" fill="none" xmlns="http://www.w3.org/2000/svg">
<path d="M367.398 11.7999V9.87988H369.318V11.7999H367.398Z" fill="#FFCDB8"/>
<path d="M356.354 7.51161L361.617 0.615609V0.599609H364.482V7.20761H366.049V9.20761H364.482V11.7996H362.385V9.22361H356.354V7.51161ZM361.889 3.70361L359.522 6.61561C359.234 6.98361 358.674 7.19161 358.242 7.39961L358.401 7.71961C358.817 7.51161 359.346 7.22361 359.81 7.22361L362.385 7.20761V3.87961C362.385 3.41561 362.658 2.87161 362.818 2.42361L362.466 2.29561C362.322 2.74361 362.177 3.33561 361.889 3.70361Z" fill="#FFCDB8"/>
<path d="M350.862 9.19138C350.526 9.52738 349.95 9.70338 349.518 9.87938L349.662 10.2154C350.094 10.0394 350.622 9.75138 351.086 9.75138H355.31V11.7994H347.406V9.86338C347.79 9.47938 349.022 8.15138 351.342 6.02338C353.822 3.71938 352.702 2.42338 351.438 2.42338C350.046 2.42338 349.742 3.73538 349.742 4.51938H347.614C347.614 2.88737 348.67 0.359375 352.046 0.359375C354.814 0.359375 356.27 3.52738 354.398 5.51138C353.038 6.95138 351.614 8.42338 350.862 9.19138Z" fill="#FFCDB8"/>
<path d="M336.506 6.19938C336.506 2.87138 338.09 0.359375 341.194 0.359375C344.298 0.359375 345.866 2.87138 345.866 6.19938C345.866 9.52738 344.298 12.0554 341.194 12.0554C338.09 12.0554 336.506 9.52738 336.506 6.19938ZM338.666 6.21538C338.666 8.18338 339.386 9.99137 341.194 9.99137C342.986 9.99137 343.706 8.18338 343.706 6.21538C343.706 4.23138 342.986 2.43937 341.194 2.43937C339.386 2.43937 338.666 4.23138 338.666 6.21538Z" fill="#FFCDB8"/>
<path d="M330.831 9.19138C330.495 9.52738 329.919 9.70338 329.487 9.87938L329.631 10.2154C330.063 10.0394 330.591 9.75138 331.055 9.75138H335.279V11.7994H327.375V9.86338C327.759 9.47938 328.991 8.15138 331.311 6.02338C333.791 3.71938 332.671 2.42338 331.407 2.42338C330.015 2.42338 329.711 3.73538 329.711 4.51938H327.583C327.583 2.88737 328.639 0.359375 332.015 0.359375C334.783 0.359375 336.239 3.52738 334.367 5.51138C333.007 6.95138 331.583 8.42338 330.831 9.19138Z" fill="#FFCDB8"/>
<path d="M319.779 4.42359V0.199594L321.747 0.183594V11.7836L319.779 11.7996V11.2236C319.779 10.7436 320.051 10.1836 320.211 9.71959L319.859 9.60759C319.715 10.0716 319.635 10.7276 319.299 11.0636C318.707 11.6876 317.891 12.0556 316.819 12.0556C314.419 12.0556 312.771 10.1996 312.819 7.83159C312.867 5.52759 314.499 3.55959 316.803 3.55959C317.875 3.55959 318.707 3.97559 319.283 4.59959C319.619 4.93559 319.715 5.59159 319.875 6.03959L320.211 5.92759C320.051 5.46359 319.779 4.90359 319.779 4.42359ZM317.075 10.2156C318.579 10.2156 319.427 9.20759 319.427 7.86359C319.427 6.50359 318.579 5.38359 317.075 5.38359C315.571 5.38359 314.771 6.50359 314.771 7.86359C314.771 9.20759 315.571 10.2156 317.075 10.2156Z" fill="#FFCDB8"/>
<path d="M307.812 12.0556C304.564 12.0556 302.82 10.1356 302.82 7.75157C302.82 5.36757 304.724 3.55957 307.428 3.55957C310.212 3.55957 311.94 5.51157 311.924 7.71957C311.924 7.87957 311.924 8.26357 311.908 8.40757L305.172 8.39157C305.172 9.27157 305.972 10.3756 307.62 10.3756C308.692 10.3756 309.348 9.91157 309.508 9.51157H311.748C311.508 10.3436 310.324 12.0556 307.812 12.0556ZM305.172 7.07957H309.636C309.636 5.97557 308.82 5.11157 307.476 5.11157C306.116 5.11157 305.172 6.07157 305.172 7.07957Z" fill="#FFCDB8"/>
<path d="M294.993 3.7998L297.025 8.5038C297.265 9.0638 297.249 9.8638 297.249 10.4718H297.617C297.617 9.8478 297.585 9.0638 297.825 8.5038L299.857 3.7998H302.001L298.481 11.7998H296.449L292.865 3.7998H294.993Z" fill="#FFCDB8"/>
<path d="M288.708 4.35957C289.556 3.70357 290.436 3.55957 292.004 3.55957V5.38357C290.02 5.38357 287.956 6.08757 287.956 8.31157V11.7996H286.004V3.79957H287.956V4.03957C287.956 4.64757 287.62 5.38357 287.38 5.94357L287.716 6.08757C287.956 5.52757 288.212 4.72757 288.708 4.35957Z" fill="#FFCDB8"/>
<path d="M280.515 12.0556C277.267 12.0556 275.523 10.1356 275.523 7.75157C275.523 5.36757 277.427 3.55957 280.131 3.55957C282.915 3.55957 284.643 5.51157 284.627 7.71957C284.627 7.87957 284.627 8.26357 284.611 8.40757L277.875 8.39157C277.875 9.27157 278.675 10.3756 280.323 10.3756C281.395 10.3756 282.051 9.91157 282.211 9.51157H284.451C284.211 10.3436 283.027 12.0556 280.515 12.0556ZM277.875 7.07957H282.339C282.339 5.97557 281.523 5.11157 280.179 5.11157C278.819 5.11157 277.875 6.07157 277.875 7.07957Z" fill="#FFCDB8"/>
<path d="M274.645 9.20757C274.645 10.7596 273.429 12.0556 270.821 12.0556C268.069 12.0556 266.773 10.4236 266.773 9.07957H268.741C268.741 9.49557 269.525 10.2156 271.029 10.2156C272.245 10.2156 272.645 9.78357 272.645 9.33557C272.645 7.76757 266.837 8.80757 266.837 5.92757C266.837 4.67957 268.037 3.55957 270.565 3.55957C273.397 3.55957 274.469 4.95157 274.469 6.07157H272.501C272.501 5.55957 271.749 5.15957 270.453 5.15957C269.573 5.15957 268.805 5.39957 268.805 5.91157C268.805 7.06357 274.645 5.95957 274.645 9.20757Z" fill="#FFCDB8"/>
<path d="M261.734 12.0556C258.486 12.0556 256.742 10.1356 256.742 7.75157C256.742 5.36757 258.646 3.55957 261.35 3.55957C264.134 3.55957 265.862 5.51157 265.846 7.71957C265.846 7.87957 265.846 8.26357 265.83 8.40757L259.094 8.39157C259.094 9.27157 259.894 10.3756 261.542 10.3756C262.614 10.3756 263.27 9.91157 263.43 9.51157H265.67C265.43 10.3436 264.246 12.0556 261.734 12.0556ZM259.094 7.07957H263.558C263.558 5.97557 262.742 5.11157 261.398 5.11157C260.038 5.11157 259.094 6.07157 259.094 7.07957Z" fill="#FFCDB8"/>
<path d="M252.505 4.35957C253.353 3.70357 254.233 3.55957 255.801 3.55957V5.38357C253.817 5.38357 251.753 6.08757 251.753 8.31157V11.7996H249.801V3.79957H251.753V4.03957C251.753 4.64757 251.417 5.38357 251.177 5.94357L251.513 6.08757C251.753 5.52757 252.009 4.72757 252.505 4.35957Z" fill="#FFCDB8"/>
<path d="M244.442 9.20757C244.442 10.7596 243.226 12.0556 240.618 12.0556C237.866 12.0556 236.57 10.4236 236.57 9.07957H238.538C238.538 9.49557 239.322 10.2156 240.826 10.2156C242.042 10.2156 242.442 9.78357 242.442 9.33557C242.442 7.76757 236.634 8.80757 236.634 5.92757C236.634 4.67957 237.834 3.55957 240.362 3.55957C243.194 3.55957 244.266 4.95157 244.266 6.07157H242.298C242.298 5.55957 241.546 5.15957 240.25 5.15957C239.37 5.15957 238.602 5.39957 238.602 5.91157C238.602 7.06357 244.442 5.95957 244.442 9.20757Z" fill="#FFCDB8"/>
<path d="M231.471 9.11139V5.51139H229.871V3.79939H231.471V0.775391H233.423V3.79939H235.503V5.51139H233.423V9.11139C233.423 9.78339 233.727 9.97539 234.479 9.97539H235.423V11.7994H233.487C231.983 11.7994 231.471 10.3914 231.471 9.11139Z" fill="#FFCDB8"/>
<path d="M223.082 4.29559C223.754 3.71959 224.506 3.55959 225.546 3.55959C227.178 3.55959 228.442 4.48759 228.442 6.31159V11.7996H226.474V7.71959C226.474 6.18359 225.914 5.49559 224.746 5.49559C223.466 5.49559 222.378 6.18359 222.378 7.71959V11.7996H220.426V0.183594H222.378V4.02359C222.378 4.64759 222.058 5.39959 221.834 5.99159L222.17 6.11959C222.394 5.52759 222.602 4.69559 223.082 4.29559Z" fill="#FFCDB8"/>
<path d="M216.204 10.9676C215.58 11.6396 214.684 12.0556 213.564 12.0556C211.148 12.0556 209.436 10.1356 209.436 7.75157C209.436 5.36757 211.148 3.55957 213.564 3.55957C214.668 3.55957 215.564 3.92757 216.172 4.56757C216.508 4.90357 216.604 5.55957 216.78 6.00757L217.116 5.89557C216.94 5.43157 216.652 4.88757 216.62 4.40757L216.588 3.79957H218.556V12.0236C218.54 14.1996 217.292 15.7996 213.964 15.7996C211.26 15.7996 209.804 14.5196 209.66 12.5356H211.74C211.932 13.6876 212.796 13.9756 213.868 13.9756C215.756 13.9756 216.588 13.1596 216.588 11.7996C216.588 11.5436 216.588 11.3356 216.604 11.1116C216.636 10.6476 216.94 10.1036 217.1 9.67157L216.764 9.54357C216.604 9.99157 216.524 10.6316 216.204 10.9676ZM211.388 7.83157C211.388 9.15957 212.22 10.1676 213.804 10.1676C215.308 10.1676 216.14 9.27157 216.22 8.02357V7.62357C216.14 6.39157 215.308 5.46357 213.804 5.46357C212.22 5.46357 211.388 6.48757 211.388 7.83157Z" fill="#FFCDB8"/>
<path d="M205.721 2.59961V0.599609H207.849V2.59961H205.721ZM205.833 11.7996V3.79961H207.769V11.7996H205.833Z" fill="#FFCDB8"/>
<path d="M201.052 4.35957C201.9 3.70357 202.78 3.55957 204.348 3.55957V5.38357C202.364 5.38357 200.3 6.08757 200.3 8.31157V11.7996H198.348V3.79957H200.3V4.03957C200.3 4.64757 199.964 5.38357 199.724 5.94357L200.06 6.08757C200.3 5.52757 200.556 4.72757 201.052 4.35957Z" fill="#FFCDB8"/>
<path d="M188.834 9.86322V0.199219H190.802V9.11122C190.802 9.76722 191.074 9.97522 191.81 9.97522H192.802V11.7992H191.618C189.794 11.7992 188.834 11.1112 188.834 9.86322Z" fill="#FFCDB8"/>
<path d="M183.209 9.86322V0.199219H185.177V9.11122C185.177 9.76722 185.449 9.97522 186.185 9.97522H187.177V11.7992H185.993C184.169 11.7992 183.209 11.1112 183.209 9.86322Z" fill="#FFCDB8"/>
<path d="M171.521 11.7834L175.649 0.567383H178.049L182.369 11.7834H180.177L178.673 7.87938H175.105L173.729 11.7834H171.521ZM178.417 6.31138L177.105 3.33538C176.961 2.99938 177.041 2.53538 177.041 2.18338H176.673C176.673 2.53538 176.753 2.99938 176.609 3.33538L175.297 6.31138H178.417Z" fill="#FFCDB8"/>
<path d="M164.742 11.7999V9.87988H166.662V11.7999H164.742Z" fill="#FFCDB8"/>
<path d="M160.611 2.59961V0.599609H162.739V2.59961H160.611ZM160.723 11.7996V3.79961H162.659V11.7996H160.723Z" fill="#FFCDB8"/>
<path d="M155.146 9.86322V0.199219H157.114V9.11122C157.114 9.76722 157.386 9.97522 158.122 9.97522H159.114V11.7992H157.93C156.106 11.7992 155.146 11.1112 155.146 9.86322Z" fill="#FFCDB8"/>
<path d="M149.521 9.86322V0.199219H151.489V9.11122C151.489 9.76722 151.761 9.97522 152.497 9.97522H153.489V11.7992H152.305C150.481 11.7992 149.521 11.1112 149.521 9.86322Z" fill="#FFCDB8"/>
<path d="M145.208 10.9996C144.616 11.6556 143.784 12.0556 142.712 12.0556C140.328 12.0556 138.648 10.1356 138.648 7.75157C138.648 5.36757 140.328 3.55957 142.712 3.55957C143.784 3.55957 144.616 3.92757 145.192 4.55157C145.528 4.90357 145.592 5.55957 145.752 6.02357L146.088 5.91157C145.944 5.44757 145.656 4.88757 145.656 4.40757L145.64 3.79957H147.608V11.7996H145.64L145.656 11.1436C145.656 10.6636 145.944 10.0876 146.088 9.63957L145.736 9.52757C145.592 9.97557 145.528 10.6316 145.208 10.9996ZM140.616 7.75157C140.616 9.09557 141.496 10.2316 142.824 10.2316C144.136 10.2316 145.016 9.06357 145.064 7.75157C145.064 6.34357 144.28 5.38357 142.824 5.38357C141.496 5.38357 140.616 6.39157 140.616 7.75157Z" fill="#FFCDB8"/>
<path d="M130.863 11.1759V15.7999L128.895 15.8159V3.81595L130.863 3.79995V4.37595C130.863 4.85595 130.591 5.41595 130.431 5.87995L130.767 5.99195C130.927 5.52795 131.007 4.87195 131.327 4.53595C131.919 3.91195 132.751 3.54395 133.823 3.54395C136.223 3.54395 137.871 5.39995 137.823 7.76795C137.759 10.0719 136.143 12.0399 133.823 12.0399C132.767 12.0399 131.935 11.6239 131.343 10.9999C131.007 10.6639 130.927 10.0079 130.767 9.55995L130.431 9.67195C130.575 10.1359 130.863 10.6959 130.863 11.1759ZM133.551 5.36795C132.063 5.36795 131.215 6.39195 131.215 7.73595C131.215 9.09595 132.063 10.2159 133.551 10.2159C135.055 10.2159 135.855 9.09595 135.855 7.73595C135.855 6.39195 135.055 5.36795 133.551 5.36795Z" fill="#FFCDB8"/>
<path d="M121.77 4.21557C122.442 3.68757 123.146 3.55957 124.186 3.55957C125.818 3.55957 127.082 4.48757 127.082 6.31157V11.7996H125.114V7.71957C125.114 6.18357 124.554 5.49557 123.386 5.49557C122.106 5.49557 121.018 6.18357 121.018 7.71957V11.7996H119.066V3.79957H121.018V3.92757C121.018 4.56757 120.698 5.33557 120.458 5.94357L120.794 6.08757C121.034 5.47957 121.258 4.61557 121.77 4.21557Z" fill="#FFCDB8"/>
<path d="M114.865 10.9996C114.273 11.6556 113.441 12.0556 112.369 12.0556C109.985 12.0556 108.305 10.1356 108.305 7.75157C108.305 5.36757 109.985 3.55957 112.369 3.55957C113.441 3.55957 114.273 3.92757 114.849 4.55157C115.185 4.90357 115.249 5.55957 115.409 6.02357L115.745 5.91157C115.601 5.44757 115.313 4.88757 115.313 4.40757L115.297 3.79957H117.265V11.7996H115.297L115.313 11.1436C115.313 10.6636 115.601 10.0876 115.745 9.63957L115.393 9.52757C115.249 9.97557 115.185 10.6316 114.865 10.9996ZM110.273 7.75157C110.273 9.09557 111.153 10.2316 112.481 10.2316C113.793 10.2316 114.673 9.06357 114.721 7.75157C114.721 6.34357 113.937 5.38357 112.481 5.38357C111.153 5.38357 110.273 6.39157 110.273 7.75157Z" fill="#FFCDB8"/>
<path d="M100.478 3.7998L102.51 8.5038C102.75 9.0638 102.734 9.8638 102.734 10.4718H103.102C103.102 9.8478 103.07 9.0638 103.31 8.5038L105.342 3.7998H107.486L103.966 11.7998H101.934L98.3496 3.7998H100.478Z" fill="#FFCDB8"/>
<path d="M93.4217 12.0556C90.1737 12.0556 88.4297 10.1356 88.4297 7.75157C88.4297 5.36757 90.3337 3.55957 93.0377 3.55957C95.8217 3.55957 97.5497 5.51157 97.5337 7.71957C97.5337 7.87957 97.5337 8.26357 97.5177 8.40757L90.7817 8.39157C90.7817 9.27157 91.5817 10.3756 93.2297 10.3756C94.3017 10.3756 94.9577 9.91157 95.1177 9.51157H97.3577C97.1177 10.3436 95.9337 12.0556 93.4217 12.0556ZM90.7817 7.07957H95.2457C95.2457 5.97557 94.4297 5.11157 93.0857 5.11157C91.7257 5.11157 90.7817 6.07157 90.7817 7.07957Z" fill="#FFCDB8"/>
<path d="M81.7408 11.8154L78.9728 11.7994H77.1328V0.359375H81.8208C84.9888 0.359375 87.3888 2.63138 87.3888 5.95938C87.3888 9.28738 84.9088 11.8314 81.7408 11.8154ZM79.2288 9.83138H81.4368C83.6768 9.83138 85.3568 8.00738 85.3568 5.99138C85.3568 3.95938 83.7568 2.34338 81.5168 2.34338H79.2288V9.83138Z" fill="#FFCDB8"/>
<path d="M64.7063 11.1759V15.7999L62.7383 15.8159V3.81595L64.7063 3.79995V4.37595C64.7063 4.85595 64.4343 5.41595 64.2743 5.87995L64.6103 5.99195C64.7703 5.52795 64.8503 4.87195 65.1703 4.53595C65.7623 3.91195 66.5943 3.54395 67.6663 3.54395C70.0663 3.54395 71.7143 5.39995 71.6663 7.76795C71.6023 10.0719 69.9863 12.0399 67.6663 12.0399C66.6103 12.0399 65.7783 11.6239 65.1863 10.9999C64.8503 10.6639 64.7703 10.0079 64.6103 9.55995L64.2743 9.67195C64.4183 10.1359 64.7063 10.6959 64.7063 11.1759ZM67.3943 5.36795C65.9063 5.36795 65.0583 6.39195 65.0583 7.73595C65.0583 9.09595 65.9063 10.2159 67.3943 10.2159C68.8983 10.2159 69.6983 9.09595 69.6983 7.73595C69.6983 6.39195 68.8983 5.36795 67.3943 5.36795Z" fill="#FFCDB8"/>
<path d="M56.9529 12.0556C53.7049 12.0556 51.9609 10.1356 51.9609 7.75157C51.9609 5.36757 53.8649 3.55957 56.5689 3.55957C59.3529 3.55957 61.0809 5.51157 61.0649 7.71957C61.0649 7.87957 61.0649 8.26357 61.0489 8.40757L54.3129 8.39157C54.3129 9.27157 55.1129 10.3756 56.7609 10.3756C57.8329 10.3756 58.4889 9.91157 58.6489 9.51157H60.8889C60.6489 10.3436 59.4649 12.0556 56.9529 12.0556ZM54.3129 7.07957H58.7769C58.7769 5.97557 57.9609 5.11157 56.6169 5.11157C55.2569 5.11157 54.3129 6.07157 54.3129 7.07957Z" fill="#FFCDB8"/>
<path d="M46.9529 12.0556C43.7049 12.0556 41.9609 10.1356 41.9609 7.75157C41.9609 5.36757 43.8649 3.55957 46.5689 3.55957C49.3529 3.55957 51.0809 5.51157 51.0649 7.71957C51.0649 7.87957 51.0649 8.26357 51.0489 8.40757L44.3129 8.39157C44.3129 9.27157 45.1129 10.3756 46.7609 10.3756C47.8329 10.3756 48.4889 9.91157 48.6489 9.51157H50.8889C50.6489 10.3436 49.4649 12.0556 46.9529 12.0556ZM44.3129 7.07957H48.7769C48.7769 5.97557 47.9609 5.11157 46.6169 5.11157C45.2569 5.11157 44.3129 6.07157 44.3129 7.07957Z" fill="#FFCDB8"/>
<path d="M38.67 4.42359V0.199594L40.638 0.183594V11.7836L38.67 11.7996V11.2236C38.67 10.7436 38.942 10.1836 39.102 9.71959L38.75 9.60759C38.606 10.0716 38.526 10.7276 38.19 11.0636C37.598 11.6876 36.782 12.0556 35.71 12.0556C33.31 12.0556 31.662 10.1996 31.71 7.83159C31.758 5.52759 33.39 3.55959 35.694 3.55959C36.766 3.55959 37.598 3.97559 38.174 4.59959C38.51 4.93559 38.606 5.59159 38.766 6.03959L39.102 5.92759C38.942 5.46359 38.67 4.90359 38.67 4.42359ZM35.966 10.2156C37.47 10.2156 38.318 9.20759 38.318 7.86359C38.318 6.50359 37.47 5.38359 35.966 5.38359C34.462 5.38359 33.662 6.50359 33.662 7.86359C33.662 9.20759 34.462 10.2156 35.966 10.2156Z" fill="#FFCDB8"/>
<path d="M25.0673 4.21557C25.7393 3.68757 26.4433 3.55957 27.4833 3.55957C29.1153 3.55957 30.3793 4.48757 30.3793 6.31157V11.7996H28.4113V7.71957C28.4113 6.18357 27.8513 5.49557 26.6833 5.49557C25.4033 5.49557 24.3153 6.18357 24.3153 7.71957V11.7996H22.3633V3.79957H24.3153V3.92757C24.3153 4.56757 23.9953 5.33557 23.7553 5.94357L24.0913 6.08757C24.3313 5.47957 24.5553 4.61557 25.0673 4.21557Z" fill="#FFCDB8"/>
<path d="M18.1616 10.9996C17.5696 11.6556 16.7376 12.0556 15.6656 12.0556C13.2816 12.0556 11.6016 10.1356 11.6016 7.75157C11.6016 5.36757 13.2816 3.55957 15.6656 3.55957C16.7376 3.55957 17.5696 3.92757 18.1456 4.55157C18.4816 4.90357 18.5456 5.55957 18.7056 6.02357L19.0416 5.91157C18.8976 5.44757 18.6096 4.88757 18.6096 4.40757L18.5936 3.79957H20.5616V11.7996H18.5936L18.6096 11.1436C18.6096 10.6636 18.8976 10.0876 19.0416 9.63957L18.6896 9.52757C18.5456 9.97557 18.4816 10.6316 18.1616 10.9996ZM13.5696 7.75157C13.5696 9.09557 14.4496 10.2316 15.7776 10.2316C17.0896 10.2316 17.9696 9.06357 18.0176 7.75157C18.0176 6.34357 17.2336 5.38357 15.7776 5.38357C14.4496 5.38357 13.5696 6.39157 13.5696 7.75157Z" fill="#FFCDB8"/>
<path d="M10.2656 2.35938L8.68164 3.41537C7.94564 2.59937 6.82564 2.10338 5.27364 2.10338C4.20164 2.10338 3.20964 2.53537 3.20964 3.28738C3.20964 4.90338 10.5856 4.69538 10.5856 8.66338C10.5856 10.7754 8.37764 12.0394 5.35364 12.0394C3.22564 12.0394 1.86564 11.2394 0.681641 9.62337L2.26564 8.59938C3.00164 9.59138 3.97764 10.0874 5.62564 10.0874C7.12964 10.0874 8.02564 9.52738 8.02564 8.74338C8.02564 6.59938 0.937641 6.87138 0.937641 3.39937C0.937641 1.52738 3.09764 0.359375 5.73764 0.359375C7.64164 0.359375 9.12964 1.14338 10.2656 2.35938Z" fill="#FFCDB8"/>
</svg>
