<svg width="274" height="12" viewBox="0 0 274 12" fill="none" xmlns="http://www.w3.org/2000/svg">
<path d="M272.189 11.6001V9.80811H273.981V11.6001H272.189Z" fill="#AFAFAF"/>
<path d="M265.86 11.8559C262.772 11.8559 261.092 9.93586 261.092 7.55186C261.092 5.16786 262.916 3.35986 265.508 3.35986C268.164 3.35986 269.812 5.29586 269.796 7.48786C269.796 7.64786 269.796 8.03186 269.796 8.15986H263.044C263.044 9.11986 263.908 10.3839 265.716 10.3839C266.868 10.3839 267.572 9.80786 267.748 9.31186H269.62C269.396 10.1439 268.26 11.8559 265.86 11.8559ZM263.06 6.92786H267.876C267.876 5.72786 266.98 4.75186 265.54 4.75186C264.068 4.75186 263.06 5.83986 263.06 6.92786Z" fill="#AFAFAF"/>
<path d="M255.336 9.16807V5.12007H253.736V3.61607H255.336V0.768066H257.016V3.61607H259.096V5.12007H257.016V9.16807C257.016 9.84007 257.32 10.0161 258.072 10.0161H259.016V11.6001H257.304C255.928 11.6001 255.336 10.4161 255.336 9.16807Z" fill="#AFAFAF"/>
<path d="M249.395 2.1599V0.399902H251.235V2.1599H249.395ZM249.491 11.5999V3.5999H251.171V11.5999H249.491Z" fill="#AFAFAF"/>
<path d="M247.11 9.13586C247.11 10.7199 245.894 11.8559 243.446 11.8559C240.998 11.8559 239.43 10.4479 239.43 9.03986H241.126C241.126 9.55186 242.118 10.2719 243.59 10.2719C244.822 10.2719 245.382 9.87186 245.382 9.26386C245.382 7.40786 239.51 8.70386 239.51 5.69586C239.51 4.46386 240.758 3.35986 243.126 3.35986C245.59 3.35986 246.902 4.52786 246.902 5.75986H245.222C245.222 5.18386 244.358 4.78386 243.046 4.78386C242.038 4.78386 241.222 5.10386 241.222 5.69586C241.222 7.05586 247.11 5.87186 247.11 9.13586Z" fill="#AFAFAF"/>
<path d="M230.618 0V4.224C230.618 4.704 230.362 5.28 230.218 5.728L230.521 5.84C230.665 5.376 230.778 4.736 231.098 4.384C231.69 3.76 232.506 3.36 233.562 3.36C235.882 3.36 237.546 5.296 237.578 7.632C237.61 10.016 235.946 11.856 233.562 11.856C232.506 11.856 231.69 11.488 231.098 10.864C230.762 10.528 230.665 9.872 230.521 9.424L230.218 9.52C230.362 9.968 230.618 10.544 230.618 11.024V11.6H228.938V0H230.618ZM233.386 10.272C235.018 10.272 235.898 9.152 235.898 7.648C235.898 6.16 235.018 4.928 233.386 4.928C231.754 4.928 230.858 6.16 230.858 7.648C230.858 9.152 231.754 10.272 233.386 10.272Z" fill="#AFAFAF"/>
<path d="M222.485 11.8559C219.397 11.8559 217.717 9.93586 217.717 7.55186C217.717 5.16786 219.541 3.35986 222.133 3.35986C224.789 3.35986 226.437 5.29586 226.421 7.48786C226.421 7.64786 226.421 8.03186 226.421 8.15986H219.669C219.669 9.11986 220.533 10.3839 222.341 10.3839C223.493 10.3839 224.197 9.80786 224.373 9.31186H226.245C226.021 10.1439 224.885 11.8559 222.485 11.8559ZM219.685 6.92786H224.501C224.501 5.72786 223.605 4.75186 222.165 4.75186C220.693 4.75186 219.685 5.83986 219.685 6.92786Z" fill="#AFAFAF"/>
<path d="M204.877 3.6001L206.589 9.0241C206.701 9.3761 206.605 9.8401 206.605 10.2081H206.925C206.925 9.8561 206.845 9.3761 206.957 9.0241L208.733 3.6001H210.493L212.285 9.0241C212.397 9.3761 212.317 9.8561 212.317 10.2081H212.637C212.637 9.8401 212.541 9.3761 212.653 9.0241L214.365 3.6001H216.125L213.325 11.6001H211.453L209.789 5.7281C209.677 5.3761 209.773 4.9121 209.773 4.5601H209.453C209.453 4.9121 209.549 5.3761 209.453 5.7281L207.773 11.6001H205.917L203.117 3.6001H204.877Z" fill="#AFAFAF"/>
<path d="M195.155 1.60008H194.659V0.0800781H196.339V1.63208C196.355 2.67208 195.779 3.60008 194.739 3.60008V2.80008C195.299 2.80008 195.475 2.38408 195.523 2.00008C195.571 1.76008 195.779 1.61608 195.955 1.44008L195.731 1.21608C195.555 1.37608 195.395 1.60008 195.155 1.60008ZM192.851 1.60008H192.371V0.0800781H194.051V1.63208C194.051 2.67208 193.475 3.60008 192.435 3.60008V2.80008C192.995 2.80008 193.171 2.38408 193.235 2.00008C193.267 1.76008 193.475 1.61608 193.651 1.44008L193.443 1.21608C193.267 1.37608 193.091 1.60008 192.851 1.60008Z" fill="#AFAFAF"/>
<path d="M186.379 11.8559C183.291 11.8559 181.611 9.93586 181.611 7.55186C181.611 5.16786 183.435 3.35986 186.027 3.35986C188.683 3.35986 190.331 5.29586 190.315 7.48786C190.315 7.64786 190.315 8.03186 190.315 8.15986H183.563C183.563 9.11986 184.427 10.3839 186.235 10.3839C187.387 10.3839 188.091 9.80786 188.267 9.31186H190.139C189.915 10.1439 188.779 11.8559 186.379 11.8559ZM183.579 6.92786H188.395C188.395 5.72786 187.499 4.75186 186.059 4.75186C184.587 4.75186 183.579 5.83986 183.579 6.92786Z" fill="#AFAFAF"/>
<path d="M177.677 4.224V0H179.357V11.6H177.677V11.024C177.677 10.544 177.933 9.984 178.093 9.52L177.789 9.424C177.629 9.872 177.533 10.528 177.197 10.864C176.605 11.488 175.773 11.856 174.701 11.856C172.301 11.856 170.685 10.016 170.717 7.632C170.749 5.296 172.365 3.36 174.701 3.36C175.773 3.36 176.605 3.76 177.197 4.384C177.533 4.736 177.629 5.376 177.789 5.84L178.093 5.728C177.933 5.28 177.677 4.704 177.677 4.224ZM174.877 10.272C176.541 10.272 177.437 9.152 177.437 7.648C177.437 6.16 176.541 4.928 174.877 4.928C173.229 4.928 172.397 6.16 172.397 7.648C172.397 9.152 173.229 10.272 174.877 10.272Z" fill="#AFAFAF"/>
<path d="M160.186 7.56786C160.186 5.05586 161.962 3.35986 164.602 3.35986C167.242 3.35986 169.018 5.13586 169.018 7.56786C169.018 10.0159 167.242 11.8559 164.602 11.8559C161.962 11.8559 160.186 10.0959 160.186 7.56786ZM161.946 7.56786C161.946 9.03986 162.762 10.2399 164.602 10.2399C166.426 10.2399 167.258 9.03986 167.258 7.56786C167.258 6.11186 166.442 4.97586 164.602 4.97586C162.762 4.97586 161.946 6.11186 161.946 7.56786Z" fill="#AFAFAF"/>
<path d="M149.979 7.55186C149.979 5.02386 151.707 3.35986 154.251 3.35986C156.811 3.35986 158.091 5.02386 158.267 6.28786H156.491C156.395 5.95186 155.739 4.94386 154.219 4.94386C152.587 4.94386 151.643 5.99986 151.643 7.53586C151.643 9.07186 152.667 10.2559 154.331 10.2559C155.835 10.2559 156.443 9.24786 156.539 8.91186H158.315C158.075 10.2239 156.875 11.8399 154.363 11.8559C151.771 11.8399 149.979 10.0799 149.979 7.55186Z" fill="#AFAFAF"/>
<path d="M143.299 7.7439V6.19189H147.811V7.7439H143.299Z" fill="#AFAFAF"/>
<path d="M132.254 7.56786C132.254 5.05586 134.03 3.35986 136.67 3.35986C139.31 3.35986 141.086 5.13586 141.086 7.56786C141.086 10.0159 139.31 11.8559 136.67 11.8559C134.03 11.8559 132.254 10.0959 132.254 7.56786ZM134.014 7.56786C134.014 9.03986 134.83 10.2399 136.67 10.2399C138.494 10.2399 139.326 9.03986 139.326 7.56786C139.326 6.11186 138.51 4.97586 136.67 4.97586C134.83 4.97586 134.014 6.11186 134.014 7.56786Z" fill="#AFAFAF"/>
<path d="M124.505 4.03186C125.209 3.45586 125.913 3.35986 127.001 3.35986C128.649 3.35986 129.913 4.28786 129.913 6.11186V11.5999H128.233V7.31186C128.233 5.69586 127.625 4.99186 126.361 4.99186C124.985 4.99186 123.817 5.71186 123.817 7.31186V11.5999H122.137V3.59986H123.817V3.75986C123.817 4.35186 123.529 5.05586 123.305 5.59986L123.593 5.71186C123.817 5.16786 124.041 4.39986 124.505 4.03186Z" fill="#AFAFAF"/>
<path d="M116.501 2.08008H116.981V3.60008H115.301V2.04808C115.301 1.00808 115.877 0.0800781 116.901 0.0800781V0.880078C116.341 0.880078 116.165 1.29608 116.117 1.68008C116.085 1.92008 115.861 2.06408 115.685 2.24008L115.909 2.46408C116.085 2.30408 116.245 2.08008 116.501 2.08008ZM118.789 2.08008H119.285V3.60008H117.605V2.04808C117.589 1.00808 118.165 0.0800781 119.205 0.0800781V0.880078C118.645 0.880078 118.469 1.29608 118.421 1.68008C118.373 1.92008 118.165 2.06408 117.989 2.24008L118.213 2.46408C118.389 2.30408 118.549 2.08008 118.789 2.08008Z" fill="#AFAFAF"/>
<path d="M105.849 10.7999C105.257 11.4559 104.393 11.8559 103.305 11.8559C100.921 11.8559 99.2246 9.93586 99.2246 7.55186C99.2246 5.16786 100.921 3.35986 103.305 3.35986C104.393 3.35986 105.241 3.72786 105.833 4.35186C106.169 4.70386 106.265 5.35986 106.409 5.80786L106.713 5.71186C106.569 5.24786 106.297 4.68786 106.281 4.20786L106.265 3.59986H107.945V11.5999H106.265L106.281 10.9439C106.297 10.4639 106.569 9.88786 106.713 9.42386L106.409 9.32786C106.265 9.79186 106.169 10.4319 105.849 10.7999ZM100.905 7.55186C100.905 9.03986 101.849 10.2719 103.385 10.2719C104.905 10.2719 105.817 8.97586 105.881 7.55186C105.881 5.96786 105.001 4.92786 103.385 4.92786C101.833 4.92786 100.905 6.06386 100.905 7.55186Z" fill="#AFAFAF"/>
<path d="M89.6947 11.5999H87.0067V2.9279H84.2227V0.399902H92.4787V2.9279H89.6947V11.5999Z" fill="#AFAFAF"/>
<path d="M71.7129 6.00016C71.7129 2.70416 74.3049 0.160156 77.3929 0.160156C80.4809 0.160156 83.0729 2.97616 83.0729 6.00016C83.0729 9.02416 80.4809 11.8562 77.3929 11.8562C74.3049 11.8562 71.7129 9.29616 71.7129 6.00016ZM74.4169 6.00016C74.4169 7.44016 75.2329 9.23216 77.3929 9.23216C79.5689 9.23216 80.3849 7.44016 80.3849 6.00016C80.3849 4.56016 79.5689 2.76816 77.3929 2.76816C75.2329 2.76816 74.4169 4.56016 74.4169 6.00016Z" fill="#AFAFAF"/>
<path d="M61.4087 6.0479V11.5999H58.7207V0.399902H61.4087L66.0167 6.2079C66.4487 6.7679 66.6887 7.6479 66.9127 8.3039L67.3287 8.1599C67.1047 7.5039 66.7367 6.6719 66.7367 5.9679V0.399902H69.4407V11.5999H66.7367L62.1287 5.7919C61.6967 5.2479 61.4727 4.3679 61.2327 3.7119L60.8167 3.8559C61.0567 4.5119 61.4087 5.3439 61.4087 6.0479Z" fill="#AFAFAF"/>
<path d="M51.7464 9.13586C51.7464 10.7199 50.5304 11.8559 48.0824 11.8559C45.6344 11.8559 44.0664 10.4479 44.0664 9.03986H45.7624C45.7624 9.55186 46.7544 10.2719 48.2264 10.2719C49.4584 10.2719 50.0184 9.87186 50.0184 9.26386C50.0184 7.40786 44.1464 8.70386 44.1464 5.69586C44.1464 4.46386 45.3944 3.35986 47.7624 3.35986C50.2264 3.35986 51.5384 4.52786 51.5384 5.75986H49.8584C49.8584 5.18386 48.9944 4.78386 47.6824 4.78386C46.6744 4.78386 45.8584 5.10386 45.8584 5.69586C45.8584 7.05586 51.7464 5.87186 51.7464 9.13586Z" fill="#AFAFAF"/>
<path d="M39.8848 2.1599V0.399902H41.7248V2.1599H39.8848ZM39.9808 11.5999V3.5999H41.6608V11.5999H39.9808Z" fill="#AFAFAF"/>
<path d="M32.7991 9.13586C32.7991 10.7199 31.5831 11.8559 29.1351 11.8559C26.6871 11.8559 25.1191 10.4479 25.1191 9.03986H26.8151C26.8151 9.55186 27.8071 10.2719 29.2791 10.2719C30.5111 10.2719 31.0711 9.87186 31.0711 9.26386C31.0711 7.40786 25.1991 8.70386 25.1991 5.69586C25.1991 4.46386 26.4471 3.35986 28.8151 3.35986C31.2791 3.35986 32.5911 4.52786 32.5911 5.75986H30.9111C30.9111 5.18386 30.0471 4.78386 28.7351 4.78386C27.7271 4.78386 26.9111 5.10386 26.9111 5.69586C26.9111 7.05586 32.7991 5.87186 32.7991 9.13586Z" fill="#AFAFAF"/>
<path d="M20.9375 2.1599V0.399902H22.7775V2.1599H20.9375ZM21.0335 11.5999V3.5999H22.7135V11.5999H21.0335Z" fill="#AFAFAF"/>
<path d="M12.7568 4.176C13.4448 3.536 14.2288 3.36 15.3328 3.36C16.9808 3.36 18.2448 4.288 18.2448 6.112V11.6H16.5648V7.312C16.5648 5.696 15.9568 4.992 14.6928 4.992C13.3168 4.992 12.1488 5.712 12.1488 7.312V11.6H10.4688V0H12.1488V3.952C12.1488 4.496 11.8767 5.152 11.6847 5.68L11.9727 5.792C12.1647 5.28 12.3408 4.544 12.7568 4.176Z" fill="#AFAFAF"/>
<path d="M4.91358 11.5999H3.12158V2.0639H0.0175781V0.399902H8.01758V2.0639H4.91358V11.5999Z" fill="#AFAFAF"/>
</svg>
