<svg width="24" height="24" viewBox="0 0 24 24" fill="none" xmlns="http://www.w3.org/2000/svg">
<path fill-rule="evenodd" clip-rule="evenodd" d="M23.5564 23.5701H18.8078V15.4821C18.8078 13.2647 17.9652 12.0254 16.2101 12.0254C14.3007 12.0254 13.3031 13.315 13.3031 15.4821V23.5701H8.72679V8.16269H13.3031V10.2381C13.3031 10.2381 14.6791 7.69197 17.9487 7.69197C21.2167 7.69197 23.5564 9.68764 23.5564 13.8151V23.5701ZM3.26725 6.14521C1.70845 6.14521 0.445312 4.87217 0.445312 3.3021C0.445312 1.73203 1.70845 0.458984 3.26725 0.458984C4.82604 0.458984 6.08843 1.73203 6.08843 3.3021C6.08843 4.87217 4.82604 6.14521 3.26725 6.14521ZM0.904224 23.5701H5.67616V8.16269H0.904224V23.5701Z" fill="white"/>
</svg>
